<svg width="98" height="98" viewBox="0 0 98 98" fill="none" xmlns="http://www.w3.org/2000/svg">
<circle cx="49" cy="49" r="49" fill="#4152A4"/>
<path d="M38.6711 52.3082C41.7157 52.3082 44.1839 49.8258 44.1839 46.7637C44.1839 43.7016 41.7157 41.2192 38.6711 41.2192C35.6264 41.2192 33.1582 43.7016 33.1582 46.7637C33.1582 49.8258 35.6264 52.3082 38.6711 52.3082Z" fill="white"/>
<path d="M60.6984 52.3082C63.7431 52.3082 66.2113 49.8258 66.2113 46.7637C66.2113 43.7016 63.7431 41.2192 60.6984 41.2192C57.6537 41.2192 55.1855 43.7016 55.1855 46.7637C55.1855 49.8258 57.6537 52.3082 60.6984 52.3082Z" fill="white"/>
<path d="M55.7788 30.8851C57.624 28.7143 59.4692 26.5442 61.3139 24.3734C60.6604 24.3734 60.008 24.3734 59.3546 24.3734C63.0787 27.3793 66.8029 30.3849 70.5271 33.3908C71.9062 34.504 73.8811 32.5452 72.4864 31.4202C68.7622 28.4144 65.0381 25.4087 61.3139 22.4028C60.763 21.958 59.8833 21.7807 59.3546 22.4028C57.5095 24.5736 55.6642 26.7437 53.8195 28.9145C52.665 30.2725 54.616 32.2536 55.7788 30.8851Z" fill="white"/>
<path d="M45.1434 28.9145C43.2983 26.7437 41.4536 24.5736 39.6085 22.4028C39.0796 21.7807 38.2 21.958 37.6491 22.4028C33.9244 25.4087 30.2008 28.4144 26.4766 31.4202C25.0821 32.5452 27.057 34.5041 28.436 33.3908C32.1601 30.3849 35.8843 27.3793 39.6085 24.3734C38.9549 24.3734 38.3026 24.3734 37.6491 24.3734C39.4943 26.5442 41.3389 28.7143 43.1841 30.8851C44.3469 32.2536 46.2979 30.2725 45.1434 28.9145Z" fill="white"/>
<path d="M40.6926 70.8636C46.0003 72.551 51.3076 74.2395 56.6153 75.9275C58.3247 76.471 59.0502 73.779 57.3525 73.2394C52.0448 71.5521 46.7376 69.8635 41.4299 68.1756C39.7205 67.6321 38.9954 70.3234 40.6926 70.8636Z" fill="white"/>
</svg>
