<svg width="98" height="98" viewBox="0 0 98 98" fill="none" xmlns="http://www.w3.org/2000/svg">
<circle cx="49" cy="49" r="49" fill="#4152A4"/>
<path d="M70.0642 73.1573C58.3733 61.076 39.1647 61.0765 27.4745 73.1586C25.9904 74.6916 28.3285 77.035 29.8145 75.4985C40.2767 64.6862 57.2613 64.6855 67.724 75.4973C69.2103 77.033 71.549 74.6904 70.0642 73.1573Z" fill="white"/>
<path d="M36.0311 51.0578C39.6673 51.0578 42.615 48.1102 42.615 44.474C42.615 40.8378 39.6673 37.8901 36.0311 37.8901C32.395 37.8901 29.4473 40.8378 29.4473 44.474C29.4473 48.1102 32.395 51.0578 36.0311 51.0578Z" fill="white"/>
<path d="M60.9276 51.0578C64.5638 51.0578 67.5115 48.1102 67.5115 44.474C67.5115 40.8378 64.5638 37.8901 60.9276 37.8901C57.2914 37.8901 54.3438 40.8378 54.3438 44.474C54.3438 48.1102 57.2914 51.0578 60.9276 51.0578Z" fill="white"/>
<path d="M62.8189 22.4885C57.7457 27.561 52.6732 32.6343 47.6005 37.707C48.3803 37.707 49.1607 37.707 49.9405 37.707C44.868 32.6337 39.7953 27.5612 34.7227 22.4885C33.2121 20.9779 30.8721 23.3179 32.3828 24.8285C37.4553 29.9017 42.528 34.9742 47.6005 40.0469C48.2379 40.6843 49.3031 40.6843 49.9405 40.0469C55.0137 34.9744 60.0862 29.9012 65.1589 24.8285C66.6696 23.3179 64.3289 20.9772 62.8189 22.4885Z" fill="white"/>
</svg>
