<svg width="98" height="98" viewBox="0 0 98 98" fill="none" xmlns="http://www.w3.org/2000/svg">
<circle cx="49" cy="49" r="49" fill="#4152A4"/>
<path d="M35.7272 43.3783C39.5979 43.3783 42.7357 40.2405 42.7357 36.3698C42.7357 32.4991 39.5979 29.3613 35.7272 29.3613C31.8565 29.3613 28.7188 32.4991 28.7188 36.3698C28.7188 40.2405 31.8565 43.3783 35.7272 43.3783Z" fill="white"/>
<path d="M62.2272 43.3783C66.0979 43.3783 69.2357 40.2405 69.2357 36.3698C69.2357 32.4991 66.0979 29.3613 62.2272 29.3613C58.3565 29.3613 55.2188 32.4991 55.2188 36.3698C55.2188 40.2405 58.3565 43.3783 62.2272 43.3783Z" fill="white"/>
<path d="M24.4914 68.6385C40.7595 68.6385 57.0284 68.6385 73.2965 68.6385C75.5689 68.6385 75.5689 65.1152 73.2965 65.1152C57.0284 65.1152 40.7595 65.1152 24.4914 65.1152C22.219 65.1152 22.219 68.6385 24.4914 68.6385Z" fill="white"/>
</svg>
