<svg width="155" height="160" viewBox="0 0 155 160" fill="none" xmlns="http://www.w3.org/2000/svg">
<path d="M111 80.5663C123.101 71.333 132.91 59.4328 139.664 45.791C146.417 32.1493 149.933 17.1337 149.939 1.91181C149.939 1.40477 149.737 0.918493 149.379 0.559959C149.02 0.201425 148.534 2.15199e-06 148.027 2.15199e-06C126.021 -0.0045918 104.644 7.34615 87.2948 20.884C80.5974 26.1004 74.5907 32.1475 69.4194 38.8799C67.6008 39.9957 65.46 40.4683 63.3407 40.2218C61.2213 39.9753 59.2462 39.024 57.7322 37.5206C55.2378 35.0263 51.8552 33.6242 48.3277 33.6224C44.8002 33.6206 41.4162 35.0193 38.9193 37.511L19.9831 56.17C19.8029 56.3478 19.6597 56.5597 19.5621 56.7933C19.4644 57.027 19.4141 57.2777 19.4141 57.5309C19.4141 57.7841 19.4644 58.0348 19.5621 58.2684C19.6597 58.502 19.8029 58.7139 19.9831 58.8918L30.9391 69.7126C33.7044 72.4288 37.2406 74.2254 41.0649 74.8573C44.8892 75.4892 48.8153 74.9256 52.3074 73.2434C52.301 73.267 52.294 73.29 52.2876 73.3132C52.2 73.6378 52.1995 73.9798 52.2862 74.3047C52.3729 74.6295 52.5438 74.9258 52.7815 75.1635L58.2955 80.6785L44.8051 83.5376C44.4684 83.6089 44.1572 83.7698 43.9043 84.0033C43.6514 84.2368 43.4663 84.5342 43.3684 84.8642C43.2705 85.1941 43.2635 85.5444 43.3481 85.878C43.4327 86.2116 43.6059 86.5162 43.8492 86.7596L50.6362 93.5466C49.1044 92.6301 47.4376 91.9611 45.6973 91.5643C45.1435 91.4391 44.5885 91.3413 44.0522 91.2744C43.3811 91.1891 42.7056 91.1438 42.0292 91.1389C39.7916 91.1199 37.5728 91.5484 35.5032 92.3993C33.4337 93.2501 31.5551 94.5063 29.9781 96.0937C28.3496 97.6954 27.0568 99.6057 26.1753 101.713C25.2938 103.82 24.8413 106.082 24.8442 108.366C24.8441 108.865 25.0388 109.344 25.3869 109.701C25.7351 110.058 26.209 110.265 26.7076 110.278L28.1494 110.314C25.3591 114.177 24.1871 118.976 24.8831 123.69C24.9697 124.124 25.2042 124.514 25.5465 124.794C25.8889 125.073 26.3178 125.225 26.7599 125.224H31.9829C32.49 125.224 32.9762 125.022 33.3348 124.664C33.6933 124.305 33.8947 123.819 33.8947 123.312C33.8947 122.805 33.6933 122.319 33.3348 121.96C32.9762 121.601 32.49 121.4 31.9829 121.4H28.5002C28.4461 118.851 29.0056 114.021 33.635 109.936C33.9229 109.682 34.1276 109.347 34.2224 108.975C34.3172 108.603 34.2976 108.212 34.1663 107.851C34.035 107.49 33.798 107.178 33.4863 106.954C33.1745 106.73 32.8025 106.605 32.4188 106.596L28.7991 106.505C29.2083 103.583 30.5698 100.878 32.6728 98.8088C33.8822 97.5918 35.32 96.6255 36.9037 95.9654C38.4875 95.3054 40.1859 94.9646 41.9017 94.9626H42.0015C42.3057 94.9645 42.611 94.9807 42.9159 95.004C41.7484 95.6922 40.7552 96.6402 40.0135 97.7745C39.2717 98.9088 38.8015 100.199 38.6392 101.544L37.5428 110.402C37.5095 110.671 37.5337 110.944 37.6139 111.203C37.694 111.462 37.8282 111.7 38.0076 111.903C38.187 112.106 38.4074 112.269 38.6544 112.38C38.9013 112.491 39.1691 112.549 39.4399 112.549C39.5184 112.549 39.5969 112.544 39.6748 112.535L48.5328 111.438C49.8793 111.272 51.1695 110.799 52.3039 110.055C53.4383 109.311 54.3864 108.316 55.0751 107.147C55.1025 107.492 55.1213 107.839 55.1219 108.189C55.1264 109.926 54.7864 111.648 54.1215 113.253C53.4566 114.858 52.48 116.316 51.2483 117.541C51.0668 117.718 50.9222 117.929 50.8229 118.162C50.7235 118.395 50.6715 118.645 50.6698 118.898C50.6681 119.151 50.7167 119.402 50.8128 119.637C50.9089 119.871 51.0506 120.084 51.2296 120.263C51.4087 120.442 51.6215 120.584 51.8558 120.68C52.0901 120.776 52.3412 120.825 52.5944 120.823C52.8477 120.821 53.098 120.769 53.331 120.67C53.564 120.571 53.7749 120.426 53.9516 120.245C55.7884 118.409 57.1813 116.178 58.0237 113.722C58.8662 111.266 59.1358 108.65 58.812 106.074C58.7483 105.541 58.6552 104.999 58.5361 104.462C58.1416 102.694 57.4668 101.001 56.5373 99.447L63.1799 106.089C63.4193 106.328 63.7181 106.5 64.0456 106.586C64.3732 106.672 64.7177 106.67 65.0439 106.579C65.3702 106.488 65.6665 106.312 65.9025 106.07C66.1385 105.827 66.3058 105.526 66.3872 105.197L69.6443 92.0273L74.6029 96.9862C74.8396 97.2227 75.1342 97.393 75.4572 97.4801C75.7803 97.5672 76.1205 97.5681 76.444 97.4827C76.5584 97.4508 76.6715 97.4189 76.7859 97.3871C75.0379 100.895 74.428 104.86 75.0411 108.731C75.6543 112.601 77.46 116.184 80.2065 118.98L91.0264 130.003C91.3786 130.386 91.8672 130.615 92.3866 130.64C92.9062 130.615 93.3949 130.386 93.7472 130.003L112.397 111.044C114.889 108.543 116.289 105.156 116.289 101.625C116.289 98.0934 114.889 94.7062 112.397 92.2048C110.903 90.6966 109.954 88.7332 109.701 86.6253C109.448 84.5174 109.905 82.3853 111 80.5663ZM146.095 3.84306C145.979 9.65764 145.329 15.4493 144.154 21.145C137.69 17.5625 132.353 12.2482 128.743 5.79917C134.455 4.61439 140.263 3.95958 146.095 3.84306ZM33.6248 66.9921L24.0473 57.5331L41.6114 40.2245C43.3904 38.4458 45.803 37.4465 48.3187 37.4465C50.8344 37.4465 53.247 38.4458 55.026 40.2245C56.4147 41.6053 58.0901 42.6637 59.9334 43.3248C61.7768 43.9859 63.7429 44.2335 65.6926 44.0501C60.7866 51.3289 56.8692 59.2271 54.0433 67.5376C51.2018 70.0456 47.5154 71.3838 43.7267 71.2826C39.9381 71.1813 36.3284 69.6483 33.6248 66.9921ZM52.2969 104.01C52.0274 104.966 51.4816 105.82 50.7281 106.466C49.9746 107.113 49.0469 107.522 48.0616 107.643L41.6385 108.439L42.4351 102.018C42.5641 101.013 42.9903 100.07 43.6591 99.3091C44.3279 98.5483 45.2087 98.0047 46.1886 97.7481C47.0481 97.5287 47.9502 97.5396 48.8041 97.7796C49.658 98.0196 50.4337 98.4802 51.053 99.1152C51.6724 99.7502 52.1135 100.537 52.3322 101.397C52.5508 102.256 52.5392 103.158 52.2985 104.012L52.2969 104.01ZM63.4883 100.991L49.0449 86.5474L61.5204 83.9027L66.486 88.8674L63.4883 100.991ZM76.5234 93.4991L56.2719 73.2476C56.6117 72.0453 56.9764 70.8506 57.3657 69.6636C57.3772 69.6521 57.389 69.6419 57.4005 69.6317L57.3823 69.6135C61.986 55.6746 69.7237 42.9766 80.0009 32.4949C90.2782 22.0132 102.821 14.0269 116.667 9.14962C119.37 8.20157 122.106 7.38077 124.873 6.6872C129 14.5231 135.417 20.915 143.269 25.0106C135.091 57.6446 109.945 84.2424 76.5234 93.4991ZM109.684 108.316L92.385 125.871L82.926 116.293C80.2307 113.55 78.6934 109.876 78.6322 106.03C78.5709 102.185 79.9906 98.4637 82.5972 95.6362C90.8238 92.8773 98.6487 89.0409 105.868 84.2271C105.685 86.1765 105.933 88.1421 106.594 89.985C107.255 91.8279 108.313 93.5029 109.694 94.8915C111.471 96.6739 112.468 99.0888 112.466 101.606C112.465 104.123 111.464 106.536 109.684 108.316V108.316Z" fill="white"/>
<path d="M44.9882 121.043C43.9745 121.283 42.936 121.403 41.8943 121.4H38.8825C38.3755 121.4 37.8892 121.602 37.5307 121.96C37.1721 122.319 36.9707 122.805 36.9707 123.312C36.9707 123.819 37.1721 124.305 37.5307 124.664C37.8892 125.023 38.3755 125.224 38.8825 125.224H41.8943C43.2354 125.226 44.5723 125.071 45.8772 124.761C46.3703 124.643 46.7963 124.334 47.0615 123.902C47.3266 123.47 47.4092 122.95 47.2911 122.457C47.173 121.964 46.8639 121.538 46.4317 121.273C45.9995 121.007 45.4797 120.925 44.9866 121.043H44.9882Z" fill="white"/>
<path d="M121.924 81.5433C122.369 81.5438 122.8 81.3883 123.142 81.1039C124.505 79.9759 125.856 78.7944 127.157 77.5925C127.344 77.423 127.496 77.2181 127.604 76.9895C127.712 76.761 127.773 76.5133 127.785 76.2609C127.796 76.0085 127.757 75.7563 127.671 75.519C127.584 75.2816 127.451 75.0638 127.28 74.8781C127.109 74.6924 126.902 74.5425 126.672 74.437C126.443 74.3316 126.195 74.2728 125.942 74.2639C125.69 74.255 125.438 74.2962 125.201 74.3853C124.965 74.4743 124.748 74.6093 124.564 74.7825C123.312 75.9382 122.012 77.0741 120.702 78.16C120.399 78.411 120.181 78.7494 120.077 79.1289C119.974 79.5085 119.99 79.9108 120.123 80.281C120.257 80.6511 120.501 80.971 120.823 81.1971C121.145 81.4232 121.529 81.5444 121.923 81.5442L121.924 81.5433Z" fill="white"/>
<path d="M153.499 31.1883C153.258 31.1156 153.006 31.091 152.756 31.1158C152.506 31.1407 152.264 31.2145 152.042 31.333C151.821 31.4516 151.625 31.6126 151.466 31.8068C151.307 32.001 151.188 32.2247 151.115 32.4651C149.506 37.7848 147.43 42.9524 144.914 47.908C143.997 49.7125 143.009 51.5128 141.976 53.2586C140.706 55.4033 139.334 57.5257 137.897 59.5675C135.618 62.8039 133.14 65.8958 130.477 68.8255C130.136 69.2007 129.958 69.6961 129.983 70.2026C130.007 70.7091 130.231 71.1852 130.607 71.5262C130.982 71.8673 131.477 72.0453 131.984 72.0211C132.49 71.9969 132.966 71.7724 133.307 71.3972C136.076 68.3497 138.652 65.1336 141.023 61.7674C142.517 59.6446 143.944 57.4371 145.265 55.2057C146.34 53.3895 147.368 51.5169 148.322 49.6395C150.94 44.4832 153.099 39.1064 154.774 33.5714C154.921 33.0862 154.869 32.5626 154.63 32.1158C154.39 31.6689 153.984 31.3353 153.499 31.1883Z" fill="white"/>
<path d="M2.5419 78.2282C2.79297 78.2285 3.04162 78.1792 3.27358 78.0832C3.50554 77.9871 3.71623 77.8461 3.89356 77.6684L5.35768 76.2043C5.70821 75.8441 5.90284 75.3605 5.89946 74.8579C5.89608 74.3554 5.69496 73.8744 5.33962 73.519C4.98429 73.1636 4.50331 72.9625 4.00077 72.959C3.49823 72.9556 3.01455 73.1502 2.65438 73.5006L1.18866 74.9648C0.92137 75.2321 0.739354 75.5728 0.66562 75.9436C0.591886 76.3144 0.629746 76.6987 0.774412 77.048C0.919079 77.3973 1.16406 77.6958 1.47838 77.9059C1.7927 78.116 2.16225 78.2282 2.54031 78.2282H2.5419Z" fill="white"/>
<path d="M9.5108 72.0505L16.0527 65.5089C16.2302 65.3314 16.3711 65.1207 16.4672 64.8887C16.5633 64.6568 16.6127 64.4082 16.6128 64.1571C16.6128 63.906 16.5633 63.6574 16.4673 63.4254C16.3712 63.1935 16.2304 62.9827 16.0529 62.8052C15.8753 62.6276 15.6646 62.4868 15.4326 62.3907C15.2007 62.2946 14.9521 62.2451 14.701 62.2451C14.4499 62.2451 14.2013 62.2945 13.9694 62.3906C13.7374 62.4867 13.5266 62.6275 13.3491 62.805L6.8075 69.3466C6.62757 69.5236 6.48447 69.7344 6.38644 69.967C6.28842 70.1995 6.2374 70.4492 6.23634 70.7016C6.23529 70.9539 6.28421 71.204 6.38028 71.4374C6.47636 71.6708 6.61769 71.8828 6.79613 72.0613C6.97456 72.2397 7.18656 72.3811 7.41991 72.4773C7.65326 72.5734 7.90333 72.6224 8.1557 72.6214C8.40807 72.6204 8.65774 72.5694 8.89032 72.4714C9.1229 72.3735 9.33378 72.2304 9.5108 72.0505Z" fill="white"/>
<path d="M4.06804 84.8149C4.42657 85.1734 4.91283 85.3749 5.41985 85.3749C5.92687 85.3749 6.41313 85.1734 6.77166 84.8149L14.4613 77.125C14.6388 76.9475 14.7796 76.7367 14.8757 76.5047C14.9718 76.2728 15.0212 76.0241 15.0212 75.7731C15.0212 75.522 14.9717 75.2734 14.8756 75.0414C14.7795 74.8095 14.6387 74.5987 14.4611 74.4212C14.2836 74.2437 14.0728 74.1029 13.8409 74.0068C13.6089 73.9108 13.3603 73.8613 13.1092 73.8613C12.8581 73.8613 12.6095 73.9108 12.3776 74.0069C12.1456 74.103 11.9349 74.2438 11.7573 74.4214L4.06772 82.111C3.89018 82.2886 3.74936 82.4993 3.65329 82.7313C3.55721 82.9633 3.50778 83.2119 3.50781 83.463C3.50784 83.7141 3.55733 83.9628 3.65346 84.1947C3.74958 84.4267 3.89046 84.6374 4.06804 84.8149Z" fill="white"/>
<path d="M16.8704 73.9233C17.1215 73.9236 17.3701 73.8743 17.6021 73.7782C17.834 73.6821 18.0447 73.5412 18.222 73.3634L21.0649 70.5209C21.2448 70.3439 21.3879 70.1331 21.486 69.9005C21.584 69.6679 21.635 69.4183 21.6361 69.1659C21.6371 68.9135 21.5882 68.6635 21.4921 68.4301C21.396 68.1967 21.2547 67.9847 21.0763 67.8062C20.8978 67.6277 20.6858 67.4863 20.4525 67.3902C20.2191 67.2941 19.9691 67.2451 19.7167 67.2461C19.4643 67.2471 19.2147 67.2981 18.9821 67.396C18.7495 67.494 18.5386 67.6371 18.3616 67.8169L15.5187 70.6598C15.2514 70.9272 15.0694 71.2678 14.9957 71.6386C14.922 72.0094 14.9598 72.3937 15.1045 72.743C15.2492 73.0923 15.4941 73.3909 15.8085 73.6009C16.1228 73.811 16.4923 73.9232 16.8704 73.9233Z" fill="white"/>
<path d="M9.04381 87.1618L0.548992 95.656C0.195281 96.0155 -0.00203777 96.5003 1.5871e-05 97.0046C0.00206951 97.5089 0.20333 97.992 0.559957 98.3487C0.916584 98.7053 1.39968 98.9066 1.90403 98.9086C2.40837 98.9107 2.89309 98.7133 3.25261 98.3596L11.7468 89.8655C11.9267 89.6885 12.0698 89.4776 12.1678 89.245C12.2658 89.0125 12.3168 88.7628 12.3178 88.5104C12.3188 88.258 12.2699 88.008 12.1738 87.7746C12.0777 87.5413 11.9363 87.3292 11.7578 87.1508C11.5794 86.9723 11.3674 86.831 11.134 86.7349C10.9007 86.6388 10.6506 86.5898 10.3982 86.5908C10.1458 86.5919 9.89617 86.6428 9.6636 86.7408C9.43103 86.8388 9.22017 86.9819 9.04317 87.1618H9.04381Z" fill="white"/>
<path d="M26.0773 72.8312C25.7188 72.4728 25.2326 72.2715 24.7257 72.2715C24.2187 72.2715 23.7325 72.4728 23.374 72.8312L13.4227 82.7813C13.2428 82.9582 13.0997 83.1691 13.0017 83.4016C12.9037 83.6342 12.8526 83.8839 12.8516 84.1362C12.8505 84.3886 12.8994 84.6387 12.9955 84.872C13.0916 85.1054 13.2329 85.3175 13.4114 85.4959C13.5898 85.6744 13.8018 85.8158 14.0351 85.9119C14.2685 86.0081 14.5186 86.057 14.7709 86.056C15.0233 86.055 15.273 86.0041 15.5056 85.9061C15.7381 85.8081 15.949 85.6651 16.126 85.4852L26.0773 75.5336C26.4355 75.1751 26.6366 74.6891 26.6366 74.1824C26.6366 73.6757 26.4355 73.1897 26.0773 72.8312Z" fill="white"/>
<path d="M63.6897 134.536L62.224 136C61.8654 136.358 61.664 136.845 61.6641 137.352C61.6641 137.859 61.8656 138.345 62.2241 138.704C62.5827 139.062 63.069 139.264 63.576 139.264C64.0831 139.264 64.5694 139.062 64.9279 138.704L66.3917 137.238C66.7454 136.878 66.9426 136.393 66.9405 135.889C66.9384 135.385 66.7371 134.902 66.3804 134.545C66.0238 134.189 65.5406 133.987 65.0363 133.985C64.5319 133.983 64.0472 134.181 63.6878 134.535L63.6897 134.536Z" fill="white"/>
<path d="M74.3838 123.841L67.8422 130.383C67.6607 130.56 67.5161 130.771 67.4168 131.004C67.3175 131.236 67.2654 131.487 67.2637 131.74C67.262 131.993 67.3106 132.244 67.4067 132.479C67.5028 132.713 67.6445 132.926 67.8236 133.105C68.0026 133.284 68.2155 133.426 68.4498 133.522C68.6841 133.618 68.9351 133.667 69.1883 133.665C69.4416 133.663 69.692 133.611 69.9249 133.512C70.1579 133.413 70.3688 133.268 70.5455 133.087L77.0871 126.545C77.4376 126.185 77.6322 125.701 77.6288 125.199C77.6255 124.696 77.4243 124.215 77.069 123.86C76.7137 123.504 76.2327 123.303 75.7302 123.3C75.2276 123.296 74.7439 123.491 74.3838 123.841Z" fill="white"/>
<path d="M65.1045 145.849C65.463 146.208 65.9493 146.409 66.4563 146.409C66.9633 146.409 67.4496 146.208 67.8081 145.849L75.4981 138.16C75.6796 137.983 75.8242 137.772 75.9235 137.539C76.0228 137.306 76.0748 137.056 76.0765 136.803C76.0783 136.55 76.0297 136.299 75.9336 136.064C75.8375 135.83 75.6958 135.617 75.5167 135.438C75.3376 135.259 75.1248 135.117 74.8905 135.021C74.6562 134.925 74.4052 134.876 74.1519 134.878C73.8987 134.88 73.6483 134.932 73.4153 135.031C73.1823 135.13 72.9714 135.275 72.7948 135.456L65.1048 143.146C64.7464 143.504 64.545 143.991 64.5449 144.497C64.5449 145.004 64.7461 145.491 65.1045 145.849Z" fill="white"/>
<path d="M76.5542 134.401C76.7317 134.578 76.9425 134.719 77.1745 134.815C77.4065 134.911 77.6551 134.961 77.9062 134.961C78.1573 134.961 78.4059 134.911 78.6379 134.815C78.8698 134.719 79.0806 134.578 79.2581 134.401L82.1007 131.558C82.4592 131.199 82.6606 130.713 82.6605 130.206C82.6605 129.699 82.459 129.212 82.1004 128.854C81.7418 128.495 81.2554 128.294 80.7483 128.294C80.2413 128.294 79.755 128.496 79.3964 128.854L76.5542 131.697C76.3767 131.874 76.2358 132.085 76.1397 132.317C76.0436 132.549 75.9941 132.798 75.9941 133.049C75.9941 133.3 76.0436 133.548 76.1397 133.78C76.2358 134.012 76.3767 134.223 76.5542 134.401Z" fill="white"/>
<path d="M70.079 148.197L61.5848 156.691C61.4049 156.868 61.2618 157.079 61.1638 157.311C61.0658 157.544 61.0147 157.793 61.0137 158.046C61.0126 158.298 61.0616 158.548 61.1576 158.782C61.2537 159.015 61.395 159.227 61.5735 159.406C61.7519 159.584 61.9639 159.725 62.1973 159.822C62.4306 159.918 62.6807 159.967 62.933 159.966C63.1854 159.965 63.4351 159.914 63.6677 159.816C63.9002 159.718 64.1111 159.575 64.2881 159.395L72.7826 150.901C72.9625 150.724 73.1056 150.513 73.2036 150.28C73.3016 150.048 73.3526 149.798 73.3536 149.546C73.3547 149.293 73.3057 149.043 73.2096 148.81C73.1135 148.576 72.9721 148.364 72.7937 148.186C72.6152 148.007 72.4032 147.866 72.1699 147.77C71.9365 147.674 71.6864 147.625 71.4341 147.626C71.1817 147.627 70.932 147.678 70.6994 147.776C70.4669 147.874 70.256 148.017 70.079 148.197Z" fill="white"/>
<path d="M84.4093 133.867L74.4577 143.818C74.2778 143.995 74.1347 144.206 74.0367 144.439C73.9387 144.671 73.8878 144.921 73.8867 145.173C73.8857 145.426 73.9347 145.676 74.0308 145.909C74.1269 146.143 74.2682 146.355 74.4467 146.533C74.6251 146.711 74.8371 146.853 75.0705 146.949C75.3039 147.045 75.5539 147.094 75.8063 147.093C76.0587 147.092 76.3084 147.041 76.5409 146.943C76.7735 146.845 76.9844 146.702 77.1613 146.522L87.1126 136.571C87.2926 136.394 87.4357 136.183 87.5337 135.95C87.6317 135.718 87.6827 135.468 87.6838 135.216C87.6849 134.963 87.6359 134.713 87.5399 134.48C87.4438 134.247 87.3025 134.034 87.124 133.856C86.9456 133.678 86.7336 133.536 86.5002 133.44C86.2669 133.344 86.0168 133.295 85.7644 133.296C85.5121 133.297 85.2624 133.348 85.0298 133.446C84.7972 133.544 84.5864 133.687 84.4093 133.867Z" fill="white"/>
<path d="M138.546 110.666C136.979 110.136 135.555 109.251 134.386 108.079C133.218 106.907 132.337 105.48 131.812 103.911C131.685 103.53 131.442 103.198 131.116 102.964C130.791 102.729 130.4 102.603 129.998 102.603C129.597 102.603 129.205 102.729 128.88 102.964C128.554 103.198 128.311 103.53 128.184 103.911C127.659 105.48 126.778 106.907 125.61 108.079C124.442 109.251 123.018 110.136 121.45 110.666C121.07 110.793 120.739 111.036 120.505 111.362C120.271 111.687 120.145 112.078 120.145 112.479C120.145 112.88 120.271 113.27 120.505 113.596C120.739 113.921 121.07 114.165 121.45 114.292C123.018 114.821 124.442 115.707 125.61 116.879C126.778 118.051 127.659 119.477 128.184 121.047C128.311 121.428 128.554 121.759 128.88 121.994C129.205 122.229 129.597 122.355 129.998 122.355C130.4 122.355 130.791 122.229 131.116 121.994C131.442 121.759 131.685 121.428 131.812 121.047C132.337 119.477 133.218 118.051 134.386 116.879C135.555 115.707 136.979 114.821 138.546 114.292C138.927 114.165 139.257 113.921 139.491 113.596C139.726 113.27 139.852 112.88 139.852 112.479C139.852 112.078 139.726 111.687 139.491 111.362C139.257 111.036 138.927 110.793 138.546 110.666ZM129.998 116.204C128.994 114.748 127.734 113.486 126.28 112.479C127.734 111.472 128.994 110.21 129.998 108.754C131.002 110.21 132.262 111.472 133.716 112.479C132.262 113.486 131.002 114.748 129.998 116.204Z" fill="white"/>
<path d="M2.91657 37.4998C4.48444 38.0293 5.90837 38.9148 7.07675 40.0867C8.24513 41.2587 9.12621 42.6854 9.65093 44.2549C9.77768 44.6357 10.0211 44.967 10.3467 45.2018C10.6723 45.4366 11.0635 45.563 11.4649 45.563C11.8663 45.563 12.2576 45.4366 12.5831 45.2018C12.9087 44.967 13.1522 44.6357 13.2789 44.2549C13.8036 42.6854 14.6847 41.2587 15.8531 40.0867C17.0215 38.9148 18.4454 38.0293 20.0133 37.4998C20.3934 37.3726 20.724 37.1291 20.9583 36.8038C21.1925 36.4784 21.3185 36.0877 21.3185 35.6868C21.3185 35.2859 21.1925 34.8951 20.9583 34.5698C20.724 34.2444 20.3934 34.0009 20.0133 33.8737C18.4454 33.3442 17.0215 32.4587 15.8531 31.2868C14.6847 30.1148 13.8036 28.6881 13.2789 27.1187C13.1522 26.7378 12.9087 26.4065 12.5831 26.1717C12.2576 25.9369 11.8663 25.8105 11.4649 25.8105C11.0635 25.8105 10.6723 25.9369 10.3467 26.1717C10.0211 26.4065 9.77768 26.7378 9.65093 27.1187C9.12621 28.6881 8.24513 30.1148 7.07675 31.2868C5.90837 32.4587 4.48444 33.3442 2.91657 33.8737C2.53639 34.0009 2.20581 34.2444 1.97158 34.5698C1.73735 34.8951 1.61133 35.2859 1.61133 35.6868C1.61133 36.0877 1.73735 36.4784 1.97158 36.8038C2.20581 37.1291 2.53639 37.3726 2.91657 37.4998ZM11.4649 31.9616C12.4689 33.4178 13.7286 34.6799 15.1828 35.6868C13.7286 36.6936 12.4689 37.9557 11.4649 39.4119C10.4609 37.9557 9.20128 36.6936 7.74708 35.6868C9.20128 34.6799 10.4609 33.4178 11.4649 31.9616Z" fill="white"/>
<path d="M36.3303 19.1184C38.2634 19.1184 39.8305 17.5491 39.8305 15.6134C39.8305 13.6776 38.2634 12.1084 36.3303 12.1084C34.3972 12.1084 32.8301 13.6776 32.8301 15.6134C32.8301 17.5491 34.3972 19.1184 36.3303 19.1184Z" fill="white"/>
<path d="M123.955 143.704C125.888 143.704 127.455 142.135 127.455 140.199C127.455 138.264 125.888 136.694 123.955 136.694C122.022 136.694 120.455 138.264 120.455 140.199C120.455 142.135 122.022 143.704 123.955 143.704Z" fill="white"/>
<path d="M103.151 32.8096C100.853 32.8109 98.5917 33.3786 96.5658 34.4625C94.54 35.5465 92.8126 37.1132 91.5367 39.0239C90.2607 40.9346 89.4756 43.1305 89.2507 45.4171C89.0258 47.7036 89.3682 50.0104 90.2474 52.1331C91.1267 54.2558 92.5157 56.1289 94.2916 57.5868C96.0674 59.0446 98.1753 60.0421 100.429 60.491C102.682 60.9398 105.011 60.8262 107.21 60.1602C109.409 59.4941 111.41 58.2962 113.035 56.6725C114.99 54.7175 116.322 52.2268 116.861 49.5151C117.401 46.8035 117.124 43.9929 116.066 41.4386C115.008 38.8843 113.216 36.7012 110.917 35.1652C108.618 33.6292 105.916 32.8095 103.151 32.8096H103.151ZM110.332 53.9689C108.912 55.3892 107.102 56.3564 105.132 56.7483C103.162 57.1402 101.12 56.9391 99.2647 56.1705C97.4091 55.4019 95.823 54.1003 94.7071 52.4303C93.5912 50.7602 92.9956 48.7968 92.9956 46.7883C92.9956 44.7797 93.5912 42.8163 94.7071 41.1463C95.823 39.4762 97.4091 38.1746 99.2647 37.406C101.12 36.6374 103.162 36.4363 105.132 36.8282C107.102 37.2201 108.912 38.1874 110.332 39.6077C112.233 41.5136 113.301 44.0959 113.301 46.7883C113.301 49.4806 112.233 52.063 110.332 53.9689Z" fill="white"/>
</svg>
