<svg width="98" height="98" viewBox="0 0 98 98" fill="none" xmlns="http://www.w3.org/2000/svg">
<circle cx="49" cy="49" r="49" fill="#4152A4"/>
<path d="M45.2041 61.3492C39.5648 70.8321 25.052 67.8084 24.064 56.6282C23.8923 54.6804 20.8336 54.6639 21.0071 56.6282C21.594 63.2664 26.0082 68.567 32.5858 70.0008C38.6794 71.3287 44.751 68.092 47.8427 62.8924C48.8528 61.1933 46.2098 59.657 45.2041 61.3492Z" fill="white"/>
<path d="M71.9383 69.5254C72.2966 62.4922 67.9315 56.475 61.1746 54.545C54.8958 52.7513 48.3456 56.0747 45.1303 61.4816C44.1204 63.1801 46.7633 64.7169 47.769 63.024C53.9303 52.6626 69.4922 57.5248 68.8814 69.5254C68.7813 71.4964 71.8386 71.4867 71.9383 69.5254Z" fill="white"/>
<path d="M34.5202 42.2377C37.8786 42.2377 40.601 39.5153 40.601 36.1569C40.601 32.7986 37.8786 30.0762 34.5202 30.0762C31.1619 30.0762 28.4395 32.7986 28.4395 36.1569C28.4395 39.5153 31.1619 42.2377 34.5202 42.2377Z" fill="white"/>
<path d="M57.5142 46.3135C63.1236 46.3135 67.6709 41.7662 67.6709 36.1567C67.6709 30.5473 63.1236 26 57.5142 26C51.9048 26 47.3574 30.5473 47.3574 36.1567C47.3574 41.7662 51.9048 46.3135 57.5142 46.3135Z" fill="white"/>
</svg>
