<svg height="512pt" viewBox="0 -31 512 511" width="512pt" xmlns="http://www.w3.org/2000/svg"><path d="m105.890625 44.171875h-17.945313c-4.140624 0-7.5-3.359375-7.5-7.5s3.359376-7.5 7.5-7.5h17.945313c4.144531 0 7.5 3.359375 7.5 7.5s-3.355469 7.5-7.5 7.5zm0 0"/><path d="m159.734375 44.171875h-33.132813c-4.140624 0-7.5-3.359375-7.5-7.5s3.359376-7.5 7.5-7.5h33.132813c4.140625 0 7.5 3.359375 7.5 7.5s-3.359375 7.5-7.5 7.5zm0 0"/><path d="m104.578125 419.75h38.523437c4.140626 0 7.5-3.359375 7.5-7.5s-3.359374-7.5-7.5-7.5h-38.523437c-4.140625 0-7.5 3.359375-7.5 7.5s3.359375 7.5 7.5 7.5zm0 0"/><path d="m89.195312 241.035156h-46.875c-4.140624 0-7.5 3.359375-7.5 7.5 0 4.144532 3.359376 7.5 7.5 7.5h46.875c4.140626 0 7.5-3.355468 7.5-7.5 0-4.140625-3.359374-7.5-7.5-7.5zm0 0"/><path d="m136.066406 256.035156c4.144532 0 7.5-3.355468 7.5-7.5 0-4.140625-3.355468-7.5-7.5-7.5h-18.144531c-4.144531 0-7.5 3.359375-7.5 7.5 0 4.144532 3.355469 7.5 7.5 7.5zm0 0"/><path d="m205.359375 241.035156h-42.796875c-4.144531 0-7.5 3.359375-7.5 7.5 0 4.144532 3.355469 7.5 7.5 7.5h42.796875c4.140625 0 7.5-3.355468 7.5-7.5 0-4.140625-3.359375-7.5-7.5-7.5zm0 0"/><path d="m42.320312 286.917969h29.886719c4.140625 0 7.5-3.359375 7.5-7.5s-3.359375-7.5-7.5-7.5h-29.886719c-4.140624 0-7.5 3.359375-7.5 7.5s3.359376 7.5 7.5 7.5zm0 0"/><path d="m85.59375 279.417969c0 4.140625 3.359375 7.5 7.5 7.5h54.183594c4.140625 0 7.5-3.359375 7.5-7.5s-3.359375-7.5-7.5-7.5h-54.183594c-4.140625 0-7.5 3.359375-7.5 7.5zm0 0"/><path d="m205.359375 271.917969h-32.972656c-4.144531 0-7.5 3.359375-7.5 7.5s3.355469 7.5 7.5 7.5h32.972656c4.140625 0 7.5-3.359375 7.5-7.5s-3.359375-7.5-7.5-7.5zm0 0"/><path d="m42.320312 315.328125h37.867188c4.140625 0 7.5-3.355469 7.5-7.5 0-4.140625-3.359375-7.5-7.5-7.5h-37.867188c-4.140624 0-7.5 3.359375-7.5 7.5 0 4.144531 3.359376 7.5 7.5 7.5zm0 0"/><path d="m176.042969 307.828125c0-4.140625-3.359375-7.5-7.5-7.5h-64.164063c-4.140625 0-7.5 3.359375-7.5 7.5 0 4.144531 3.359375 7.5 7.5 7.5h64.164063c4.144531 0 7.5-3.355469 7.5-7.5zm0 0"/><path d="m205.359375 300.328125h-14.726563c-4.144531 0-7.5 3.359375-7.5 7.5 0 4.144531 3.355469 7.5 7.5 7.5h14.726563c4.140625 0 7.5-3.355469 7.5-7.5 0-4.140625-3.359375-7.5-7.5-7.5zm0 0"/><path d="m107.535156 331.210938h-65.214844c-4.140624 0-7.5 3.359374-7.5 7.5 0 4.140624 3.359376 7.5 7.5 7.5h65.214844c4.144532 0 7.5-3.359376 7.5-7.5 0-4.140626-3.355468-7.5-7.5-7.5zm0 0"/><path d="m158.023438 331.210938h-28.398438c-4.140625 0-7.5 3.359374-7.5 7.5 0 4.140624 3.359375 7.5 7.5 7.5h28.398438c4.144531 0 7.5-3.359376 7.5-7.5 0-4.140626-3.355469-7.5-7.5-7.5zm0 0"/><path d="m205.359375 331.210938h-27.347656c-4.144531 0-7.5 3.359374-7.5 7.5 0 4.140624 3.355469 7.5 7.5 7.5h27.347656c4.140625 0 7.5-3.359376 7.5-7.5 0-4.140626-3.359375-7.5-7.5-7.5zm0 0"/><path d="m215.625.5h-118.707031c-4.140625 0-7.5 3.359375-7.5 7.5s3.359375 7.5 7.5 7.5h118.707031c9.402344 0 17.054688 7.648438 17.054688 17.054688v29.011718h-217.679688v-29.011718c0-9.40625 7.648438-17.054688 17.054688-17.054688h18.445312c4.140625 0 7.5-3.359375 7.5-7.5s-3.359375-7.5-7.5-7.5h-18.445312c-17.675782 0-32.054688 14.378906-32.054688 32.054688v384.691406c0 17.671875 14.378906 32.050781 32.054688 32.050781h183.574218c17.671875 0 32.050782-14.378906 32.050782-32.050781v-384.691406c0-17.675782-14.378907-32.054688-32.054688-32.054688zm17.054688 76.066406v296.667969h-217.679688v-296.667969zm0 340.679688c0 9.402344-7.652344 17.050781-17.054688 17.050781h-183.570312c-9.40625 0-17.054688-7.648437-17.054688-17.050781v-29.011719h217.679688zm0 0"/><path d="m43.609375 228.773438h160.457031c8.074219 0 14.636719-6.566407 14.636719-14.636719v-60.429688c0-8.070312-6.5625-14.636719-14.636719-14.636719h-160.457031c-8.070313 0-14.636719 6.566407-14.636719 14.636719v60.429688c.003906 8.070312 6.566406 14.636719 14.636719 14.636719zm27.417969-15 33.902344-33.886719 26.886718 30.300781c2.75 3.097656 7.488282 3.382812 10.585938.632812 2.492187-2.210937 3.160156-5.710937 1.894531-8.609374l12.441406-12.4375 21.292969 24zm-27.050782-59.703126h159.726563v59.703126h-5.613281l-31.890625-35.941407c-2.277344-2.5625-5.546875-4.09375-8.976563-4.195312-3.414062-.113281-6.785156 1.226562-9.210937 3.652343l-13.425781 13.421876-20.199219-22.761719c-2.273438-2.566407-5.546875-4.097657-8.976563-4.199219-3.414062-.097656-6.785156 1.230469-9.210937 3.652344l-46.390625 46.371094h-5.832032zm0 0"/><path d="m106.902344 126.921875c0-.175781.0625-.40625.117187-.640625l10.84375-35.554688c.640625-2.042968 3.265625-3.03125 5.945313-3.03125 2.679687 0 5.304687.988282 5.945312 3.03125l10.898438 35.554688c.058594.234375.117187.464844.117187.640625 0 2.15625-3.320312 3.730469-5.828125 3.730469-1.457031 0-2.625-.464844-2.972656-1.6875l-1.984375-7.289063h-12.296875l-1.984375 7.289063c-.347656 1.222656-1.515625 1.6875-2.972656 1.6875-2.503907 0-5.828125-1.574219-5.828125-3.730469zm21.160156-12.238281-4.253906-15.625-4.253906 15.625zm0 0"/><path d="m479.945312.5h-183.570312c-17.675781 0-32.054688 14.378906-32.054688 32.054688v384.691406c0 17.671875 14.378907 32.050781 32.054688 32.050781h183.570312c17.675782 0 32.054688-14.378906 32.054688-32.050781v-128.683594c0-4.144531-3.355469-7.5-7.5-7.5s-7.5 3.355469-7.5 7.5v84.671875h-217.679688v-296.667969h217.679688v165.328125c0 4.140625 3.355469 7.5 7.5 7.5s7.5-3.359375 7.5-7.5v-209.339843c0-17.675782-14.378906-32.054688-32.054688-32.054688zm17.054688 387.734375v29.011719c0 9.402344-7.648438 17.050781-17.054688 17.050781h-183.570312c-9.402344 0-17.054688-7.648437-17.054688-17.050781v-29.011719zm0-326.667969h-217.679688v-29.011718c0-9.40625 7.648438-17.054688 17.054688-17.054688h183.570312c9.40625 0 17.054688 7.648438 17.054688 17.054688zm0 0"/><path d="m368.898438 419.75h38.523437c4.140625 0 7.5-3.359375 7.5-7.5s-3.359375-7.5-7.5-7.5h-38.523437c-4.140626 0-7.5 3.359375-7.5 7.5s3.359374 7.5 7.5 7.5zm0 0"/><path d="m370.214844 29.171875h-17.949219c-4.140625 0-7.5 3.359375-7.5 7.5s3.359375 7.5 7.5 7.5h17.949219c4.140625 0 7.5-3.359375 7.5-7.5s-3.359375-7.5-7.5-7.5zm0 0"/><path d="m424.054688 29.171875h-33.132813c-4.144531 0-7.5 3.359375-7.5 7.5s3.355469 7.5 7.5 7.5h33.132813c4.144531 0 7.5-3.359375 7.5-7.5s-3.359376-7.5-7.5-7.5zm0 0"/><path d="m401.710938 98.421875c0-8.277344-5.828126-10.378906-11.65625-10.378906h-11.949219c-1.984375 0-3.964844.933593-3.964844 2.800781v37.070312c0 1.457032 1.515625 2.738282 3.964844 2.738282h12.9375c6.585937 0 11.71875-3.320313 11.71875-12.53125v-1.222656c0-5.832032-2.449219-7.988282-6.003907-9.328126 3.089844-1.339843 4.953126-4.429687 4.953126-9.148437zm-18.535157-2.449219h6.121094c2.214844 0 3.320313 2.039063 3.320313 4.078125 0 1.980469-1.105469 4.023438-3.320313 4.023438h-6.121094zm10.492188 21.390625c0 3.730469-1.75 5.363281-4.664063 5.363281h-5.828125v-11.660156h5.828125c2.914063 0 4.664063 1.402344 4.664063 5.363282zm0 0"/><path d="m483.023438 214.136719v-60.429688c0-8.070312-6.5625-14.636719-14.636719-14.636719h-160.453125c-8.070313 0-14.636719 6.566407-14.636719 14.636719v60.429688c0 8.070312 6.566406 14.636719 14.636719 14.636719h160.457031c8.070313 0 14.632813-6.566407 14.632813-14.636719zm-147.675782-.363281 33.902344-33.886719 26.886719 30.300781c2.75 3.097656 7.488281 3.382812 10.585937.632812 2.496094-2.210937 3.160156-5.710937 1.894532-8.609374l12.441406-12.4375 21.296875 24zm132.675782 0h-5.617188l-31.886719-35.941407c-2.277343-2.5625-5.550781-4.09375-8.976562-4.195312-3.402344-.105469-6.785157 1.226562-9.214844 3.652343l-13.425781 13.421876-20.195313-22.761719c-2.277343-2.566407-5.550781-4.097657-8.976562-4.199219-3.421875-.105469-6.785157 1.230469-9.210938 3.652344l-46.390625 46.371094h-5.835937v-59.703126h159.730469zm0 0"/><path d="m319.347656 242.441406h-18.054687c-4.144531 0-7.5 3.359375-7.5 7.5s3.355469 7.5 7.5 7.5h18.054687c4.144532 0 7.5-3.359375 7.5-7.5s-3.359375-7.5-7.5-7.5zm0 0"/><path d="m476.019531 242.441406h-129.449219c-4.140624 0-7.5 3.359375-7.5 7.5s3.359376 7.5 7.5 7.5h129.449219c4.144531 0 7.5-3.359375 7.5-7.5s-3.355469-7.5-7.5-7.5zm0 0"/><path d="m319.347656 271.917969h-18.054687c-4.144531 0-7.5 3.359375-7.5 7.5s3.355469 7.5 7.5 7.5h18.054687c4.144532 0 7.5-3.359375 7.5-7.5s-3.359375-7.5-7.5-7.5zm0 0"/><path d="m476.019531 271.917969h-129.449219c-4.140624 0-7.5 3.359375-7.5 7.5s3.359376 7.5 7.5 7.5h129.449219c4.144531 0 7.5-3.359375 7.5-7.5s-3.355469-7.5-7.5-7.5zm0 0"/><path d="m319.347656 301.394531h-18.054687c-4.144531 0-7.5 3.359375-7.5 7.5s3.355469 7.5 7.5 7.5h18.054687c4.144532 0 7.5-3.359375 7.5-7.5s-3.359375-7.5-7.5-7.5zm0 0"/><path d="m476.019531 301.394531h-129.449219c-4.140624 0-7.5 3.359375-7.5 7.5s3.359376 7.5 7.5 7.5h129.449219c4.144531 0 7.5-3.359375 7.5-7.5s-3.355469-7.5-7.5-7.5zm0 0"/><path d="m319.347656 330.871094h-18.054687c-4.144531 0-7.5 3.359375-7.5 7.5 0 4.144531 3.355469 7.5 7.5 7.5h18.054687c4.144532 0 7.5-3.355469 7.5-7.5 0-4.140625-3.359375-7.5-7.5-7.5zm0 0"/><path d="m476.019531 330.871094h-129.449219c-4.140624 0-7.5 3.359375-7.5 7.5 0 4.144531 3.359376 7.5 7.5 7.5h129.449219c4.144531 0 7.5-3.355469 7.5-7.5 0-4.140625-3.355469-7.5-7.5-7.5zm0 0"/></svg>