<?xml version="1.0" encoding="iso-8859-1"?>
<!-- Generator: Adobe Illustrator 19.0.0, SVG Export Plug-In . SVG Version: 6.00 Build 0)  -->
<svg class="burger" width="24" height="19" viewBox="0 0 24 19" fill="none" xmlns="http://www.w3.org/2000/svg">
<path d="M23.0244 2.84164H0.910569C0.390244 2.84164 0 2.17302 0 1.39296C0 0.612903 0.390244 0 0.910569 0H23.0244C23.5447 0 23.935 0.612903 23.935 1.39296C23.935 2.17302 23.5447 2.84164 23.0244 2.84164Z" fill="#FFD31B"/>
<path d="M23.0244 10.9208H0.910569C0.390244 10.9208 0 10.2522 0 9.47214C0 8.69208 0.390244 8.07918 0.910569 8.07918H23.0244C23.5447 8.07918 23.935 8.69208 23.935 9.47214C24 10.2522 23.5447 10.9208 23.0244 10.9208Z" fill="#FFD31B"/>
<path d="M23.0244 19H0.910569C0.390244 19 0 18.3871 0 17.607C0 16.7713 0.390244 16.1584 0.910569 16.1584H23.0244C23.5447 16.1584 23.935 16.7713 23.935 17.5513C24 18.3314 23.5447 19 23.0244 19Z" fill="#FFD31B"/>
</svg>
