<svg height="511pt" viewBox="1 0 511.99987 511" width="511pt" xmlns="http://www.w3.org/2000/svg"><g fill-rule="evenodd"><path d="m379.019531 196.835938c17.179688 28.375 27.066407 61.65625 27.066407 97.246093 0 51.925781-21.046876 98.9375-55.074219 132.964844-34.027344 34.027344-81.039063 55.074219-132.964844 55.074219s-98.9375-21.046875-132.964844-55.074219c-34.027343-34.027344-55.074219-81.039063-55.074219-132.964844s21.046876-98.9375 55.074219-132.964843c34.027344-34.027344 81.039063-55.074219 132.964844-55.074219 35.726563 0 69.125 9.960937 97.566406 27.257812l21.824219-21.703125c-34.300781-22.484375-75.320312-35.5625-119.390625-35.5625-60.210937 0-114.722656 24.40625-154.179687 63.867188-39.460938 39.457031-63.867188 93.96875-63.867188 154.179687 0 60.210938 24.40625 114.722657 63.867188 154.179688 39.457031 39.460937 93.96875 63.867187 154.179687 63.867187s114.722656-24.40625 154.179687-63.867187c39.460938-39.457031 63.867188-93.96875 63.867188-154.179688 0-43.878906-12.964844-84.726562-35.265625-118.929687zm0 0"/><path d="m293.945312 154.855469c-22.542968-12.316407-48.402343-19.316407-75.898437-19.316407-43.78125 0-83.414063 17.746094-112.105469 46.4375-28.691406 28.691407-46.441406 68.328126-46.441406 112.105469 0 43.78125 17.75 83.414063 46.441406 112.105469s68.324219 46.441406 112.105469 46.441406c43.777344 0 83.414063-17.75 112.105469-46.441406s46.4375-68.324219 46.4375-112.105469c0-27.421875-6.960938-53.21875-19.214844-75.714843l-22.394531 22.269531c7.449219 16.277343 11.605469 34.375 11.605469 53.445312 0 35.496094-14.386719 67.632813-37.648438 90.890625-23.257812 23.261719-55.394531 37.648438-90.890625 37.648438s-67.632813-14.386719-90.890625-37.648438c-23.261719-23.257812-37.648438-55.394531-37.648438-90.890625 0-35.496093 14.386719-67.632812 37.648438-90.890625 23.257812-23.261718 55.394531-37.648437 90.890625-37.648437 19.078125 0 37.1875 4.160156 53.46875 11.617187zm0 0"/><path d="m218.046875 225.078125c1.703125-.007813 3.410156.050781 5.109375.175781l25.507812-25.367187c-9.644531-3.132813-19.933593-4.828125-30.617187-4.828125-27.34375 0-52.097656 11.085937-70.019531 29.007812-17.917969 17.917969-29.003906 42.671875-29.003906 70.015625 0 27.339844 11.085937 52.097657 29.007812 70.015625 17.917969 17.921875 42.675781 29.003906 70.015625 29.003906 27.34375 0 52.097656-11.082031 70.019531-29.003906 17.917969-17.917968 29-42.671875 29-70.015625 0-10.746093-1.710937-21.09375-4.878906-30.78125l-25.347656 25.210938c.144531 1.839843.222656 3.695312.222656 5.570312 0 19.058594-7.726562 36.3125-20.214844 48.800781-12.488281 12.488282-29.742187 20.214844-48.800781 20.214844-19.0625 0-36.316406-7.726562-48.804687-20.214844-12.484376-12.488281-20.210938-29.742187-20.210938-48.800781 0-19.058593 7.726562-36.3125 20.214844-48.800781 12.738281-12.742188 30.777344-20.125 48.800781-20.203125zm0 0"/><path d="m507.605469 61.835938c-2.582031-2.582032-5.871094-4.027344-9.246094-4.332032l-35.394531-5.792968-7.9375-38.78125c-.5-2.933594-1.878906-5.75-4.136719-8.019532-5.828125-5.859375-15.300781-5.882812-21.15625-.058594l-44.265625 44.054688c-3.125 3.109375-4.589844 7.257812-4.390625 11.339844l.21875 49.929687-175.125 174.164063c-5.855469 5.828125-5.882813 15.296875-.058594 21.15625 5.828125 5.859375 15.300781 5.886718 21.15625.058594l175.179688-174.21875 49.234375.054687c4.265625.375 8.660156-1.070313 11.925781-4.332031l43.996094-44.007813c5.859375-5.859375 5.859375-15.355469 0-21.214843zm0 0"/></g></svg>