<svg width="121" height="121" viewBox="0 0 121 121" fill="none" xmlns="http://www.w3.org/2000/svg">
<path d="M88.3383 82.5625C88.509 82.678 88.6955 82.7661 88.8909 82.8192C89.295 82.9403 89.677 82.9469 90.0912 82.8844C90.9833 82.7559 91.7276 82.2227 92.4487 81.7237C92.8386 81.4546 93.2026 81.1415 93.5725 80.8501C93.906 80.5778 94.2328 80.2982 94.5729 80.0334C94.8907 79.7887 95.2078 79.558 95.5389 79.3282C96.2503 78.8782 96.9617 78.4283 97.653 77.956C98.2781 77.5297 98.8698 77.0661 99.4816 76.6249C99.9213 76.3514 100.361 76.0779 100.828 75.82C101.303 75.5555 101.784 75.2984 102.239 75.0115C103.323 74.3481 104.375 73.6334 105.425 72.9328C106.444 72.3012 107.483 71.692 108.482 71.024C108.989 70.6904 109.489 70.3494 109.976 69.9793C110.463 69.6233 110.95 69.2674 111.437 68.9115C112.358 68.2463 113.319 67.6258 114.267 67.0046C114.803 66.6442 115.327 66.2549 115.824 65.8499C116.468 65.3255 117.032 64.7259 117.59 64.1047C117.93 63.7054 118.243 63.2905 118.536 62.8532C118.821 62.4225 119.107 61.9919 119.316 61.5218C119.413 61.3004 119.483 61.0634 119.517 60.8175C119.596 60.2765 119.485 59.7181 119.126 59.2878C118.86 58.9759 118.512 58.7234 118.193 58.4723C117.765 58.1445 117.322 57.8301 116.879 57.5157C116.013 56.895 115.132 56.3019 114.267 55.6671C112.373 54.2895 110.487 52.9052 108.616 51.4934C107.773 50.8528 106.929 50.2121 106.079 49.5781C105.099 48.845 104.103 48.1394 103.108 47.4338C102.644 47.1111 102.157 46.8085 101.678 46.4992C101.289 46.2443 100.898 46.0036 100.501 45.7554C100.015 45.4528 99.529 45.136 99.0203 44.8534C98.4158 44.509 97.8114 44.1646 97.2211 43.8209C95.7307 42.968 94.1868 42.1901 92.6577 41.3988C91.7004 40.9007 90.7424 40.4166 89.7769 39.9393C89.0387 39.5805 88.2617 39.2833 87.5153 38.9453C87.381 38.8105 87.2236 38.7099 87.0431 38.6435C86.737 38.5418 86.3891 38.5583 86.1049 38.7058C85.6973 38.9102 85.464 39.2941 85.4186 39.7378C85.3891 40.0194 85.4696 40.3637 85.5107 40.6492C85.5511 40.9488 85.6055 41.2492 85.6459 41.5488C85.7171 42.0626 85.7817 42.5689 85.8462 43.0752C86.045 44.6297 86.2437 46.1843 86.3644 47.7417C86.4397 48.9638 86.4294 50.1954 86.3908 51.4255C85.3959 51.2298 84.3838 51.0898 83.3858 50.9506C82.1069 50.7678 80.8197 50.6058 79.5252 50.4504C78.3644 50.3094 77.2072 50.2324 76.0516 50.1271C75.0297 50.0361 74.013 49.9809 72.9962 49.9256C71.9795 49.8703 70.971 49.7943 69.9661 49.7821C68.5858 49.7708 67.2055 49.7596 65.8252 49.7483C63.7797 49.7291 61.7355 49.8163 59.6915 49.7689C57.4 49.7152 55.1152 49.6689 52.8261 49.5728C50.6008 49.4731 48.3763 49.3593 46.1562 49.2953C43.4485 49.2118 40.7408 49.1284 38.0332 49.0449C37.284 49.0184 36.5325 49.0342 35.775 49.0284C34.1116 49.0159 32.4548 49.0108 30.7913 48.9983C29.6801 48.9875 28.5614 48.9833 27.4569 48.9799C26.8199 48.9736 26.1881 49.003 25.5429 49.0175C22.5086 49.0792 19.467 49.1476 16.4327 49.2093C14.8234 49.2422 13.2193 49.3108 11.6226 49.3727L11.2033 49.3995C10.9237 49.4622 10.6767 49.5762 10.4683 49.7632C10.2747 49.9368 10.1213 50.155 10.0235 50.3905C9.75625 50.6167 9.55579 50.9174 9.41695 51.2569C9.26991 51.6171 9.13698 51.9781 9.01073 52.3466C8.91886 52.6036 8.80543 52.8665 8.73436 53.1318L8.45546 54.0939C8.38439 54.3591 8.33412 54.6325 8.27717 54.8986C8.14071 55.5851 8.01837 56.2725 7.90271 56.9672C7.80885 57.5216 7.72911 58.0767 7.69173 58.6341C7.66333 59.1566 7.65649 59.6732 7.62065 60.2023C7.57636 60.8868 7.66584 61.5857 7.75609 62.2704C7.82063 62.7767 7.84205 63.2948 7.90659 63.8011C7.98295 64.3505 8.09575 64.8807 8.19368 65.4242C8.28132 65.8964 8.34739 66.3744 8.39267 66.8443C8.40403 67.1565 8.42206 67.4761 8.4193 67.7875C8.4061 68.5516 8.83525 69.2548 9.57217 69.5073C9.746 69.5663 9.93548 69.5978 10.1273 69.587C10.1689 69.6034 10.203 69.6265 10.2379 69.6355C10.6072 69.7477 10.9728 69.7958 11.3556 69.7883C11.6247 69.7888 11.8796 69.7885 12.1412 69.7956C12.6712 69.8174 13.2078 69.8465 13.7333 69.8184C14.9614 69.7648 16.1917 69.6688 17.4153 69.5653C19.574 69.4561 21.7392 69.4888 23.8985 69.4999C24.9747 69.5018 26.0413 69.5527 27.1199 69.5121C28.2624 69.468 29.4057 69.4098 30.5474 69.3798C31.6543 69.3408 32.7662 69.3375 33.8767 69.3625C35.0012 69.3882 36.1317 69.4355 37.2563 69.4612C37.8293 69.4711 38.4083 69.5026 38.9821 69.4983C39.5917 69.489 40.2012 69.4796 40.804 69.4628C41.9391 69.4254 43.0808 69.3954 44.2218 69.3795C46.454 69.3521 48.6816 69.4094 50.9093 69.3323C51.5479 69.3103 52.2005 69.2891 52.839 69.2672C53.4776 69.2452 54.1184 69.1809 54.7577 69.1449C55.8096 69.0746 56.8556 68.9827 57.9059 68.9407C60.2556 68.8347 62.6038 68.757 64.9497 68.7216C66.0982 68.699 67.2458 68.6906 68.3868 68.6747C69.5702 68.6612 70.7402 68.6327 71.9184 68.5834C74.2666 68.5057 76.6112 68.364 78.9542 68.2506C81.2193 68.14 83.4761 68.0503 85.738 67.9962C86.0004 67.9892 86.2695 67.9897 86.5319 67.9827C86.5362 68.0325 86.5265 68.0815 86.5309 68.1313C86.5371 68.4078 86.5507 68.6777 86.5503 68.9468C86.556 69.4923 86.5477 70.0372 86.5252 70.5812C86.4571 71.7035 86.3608 72.8242 86.2786 73.9457C86.233 74.5239 86.1874 75.1021 86.17 75.6818C86.1481 76.3463 86.1818 77.028 86.2811 77.6778C86.3633 78.2488 86.4672 78.8139 86.5851 79.3797C86.7193 80.0385 86.9173 80.6937 87.2099 81.3044C87.4521 81.7991 87.8075 82.1654 88.2209 82.5066C88.2625 82.523 88.3041 82.5394 88.3383 82.5625ZM90.1421 45.4685C89.8681 45.2978 89.6164 45.1071 89.3499 44.9298C89.0692 44.7516 88.7819 44.566 88.4938 44.3946C88.4601 44.1024 88.4264 43.8102 88.386 43.5106C88.3179 42.9404 88.2356 42.3694 88.1675 41.7992C88.2366 41.8313 88.3131 41.8567 88.3821 41.8888C88.9355 42.1313 89.4739 42.3871 90.0191 42.6505C91.0454 43.1807 92.0717 43.711 93.098 44.2412C93.9937 44.7006 94.8885 45.1741 95.761 45.6677C96.393 46.0278 97.0249 46.3879 97.6494 46.7547C98.1098 47.0134 98.5612 47.307 99.0134 47.5865C99.4106 47.8347 99.8153 48.0763 100.212 48.3386C100.725 48.671 101.245 48.9967 101.743 49.3424C102.698 50.0175 103.645 50.6992 104.585 51.4018C105.455 52.0581 106.325 52.7286 107.196 53.3849C109.067 54.7967 110.96 56.1743 112.855 57.5378C113.604 58.0883 114.361 58.6181 115.133 59.1346C115.823 59.604 116.506 60.066 117.15 60.5897C117.002 60.8436 116.826 61.0819 116.643 61.3269C116.399 61.6535 116.155 61.966 115.891 62.2703C115.853 62.3178 115.808 62.3579 115.756 62.4046C115.71 62.3384 115.649 62.2855 115.581 62.2393C114.687 61.6171 113.778 61.0083 112.877 60.3928C112.241 59.9688 111.591 59.5581 110.947 59.1549C110.386 58.7986 109.809 58.4698 109.248 58.1136C108.542 57.6716 107.851 57.2304 107.16 56.775C106.572 56.389 105.985 55.9888 105.382 55.6161C105.053 55.4141 104.718 55.2047 104.389 55.0027C104.039 54.7925 103.682 54.589 103.347 54.3654C102.985 54.1262 102.616 53.8795 102.261 53.6336C101.933 53.4175 101.62 53.1739 101.3 52.937C100.694 52.5004 100.087 52.0638 99.4658 51.6405C98.8785 51.2403 98.2607 50.881 97.666 50.4875C97.0238 50.0561 96.3823 49.6105 95.7476 49.1723C95.1403 48.7498 94.5256 48.334 93.9026 47.939C93.2322 47.506 92.5684 47.0804 91.9061 46.6266C91.6329 46.4418 91.3605 46.2429 91.0798 46.0648C90.7725 45.8569 90.4569 45.6697 90.1421 45.4685ZM90.1043 51.8965C89.7286 51.6424 89.3522 51.4024 88.969 51.1549C88.9349 51.1318 88.9007 51.1087 88.8733 51.0931C88.8987 49.7136 88.8884 48.3392 88.7726 46.952C88.7479 46.6249 88.7157 46.3045 88.6836 45.9841C88.9501 46.1614 89.2018 46.3522 89.4683 46.5295C89.7757 46.7374 90.0823 46.9595 90.3822 47.174C90.668 47.3879 90.9463 47.6084 91.218 47.8214C91.8356 48.3153 92.4763 48.775 93.1318 49.2213C93.7458 49.6513 94.3457 50.0804 94.9522 50.5171C95.5654 50.9611 96.1935 51.3918 96.8215 51.8225C97.4155 52.2301 98.0333 52.5895 98.6205 52.9896C99.2486 53.4203 99.8685 53.8718 100.482 54.3159C100.788 54.5379 101.087 54.7666 101.402 54.982C101.743 55.213 102.09 55.4655 102.447 55.6832C103.146 56.1177 103.838 56.5448 104.536 56.9794C105.153 57.367 105.746 57.7746 106.355 58.1688C107.018 58.6085 107.69 59.0133 108.362 59.4321C108.944 59.7966 109.541 60.1336 110.124 60.4981C110.758 60.9362 111.389 61.3246 112.018 61.7411C112.878 62.3261 113.739 62.897 114.592 63.4886C114.177 63.8343 113.749 64.1509 113.3 64.4593C112.603 64.9101 111.9 65.3392 111.19 65.7609C111.137 65.6873 111.07 65.627 110.995 65.5733C109.137 64.311 107.286 63.0561 105.414 61.8071C103.951 60.8353 102.458 59.9044 100.965 58.9735C100.28 58.5538 99.6018 58.1275 98.9321 57.6803C98.1733 57.1788 97.422 56.6706 96.6483 56.1824C95.1834 55.253 93.673 54.3778 92.2469 53.3867C91.5371 52.8949 90.8356 52.3823 90.1043 51.8965ZM82.9655 53.732C83.1416 53.7487 83.3177 53.7653 83.4939 53.782C83.9658 53.8289 84.4377 53.8758 84.9029 53.9152C85.192 53.938 85.4811 53.9608 85.7702 53.9836C85.9181 53.9987 86.0742 53.9931 86.2154 54.0007C86.3143 54.0061 86.3782 54.0025 86.4778 53.9938C86.6861 54.3308 87.041 54.5767 87.4646 54.5998C88.135 54.6433 88.7447 54.1099 88.7815 53.4321C88.7856 53.2269 88.8038 53.0226 88.8079 52.8174C88.8762 52.8636 88.9586 52.9106 89.0269 52.9568C89.3959 53.2034 89.7582 53.4427 90.119 53.7101C90.4731 53.9701 90.8198 54.2368 91.1739 54.4969C92.6029 55.5659 94.1004 56.5467 95.5905 57.5341C96.3218 58.02 97.0449 58.5267 97.768 59.0334C98.4644 59.5103 99.1839 59.953 99.8959 60.4025C101.334 61.3021 102.788 62.1742 104.21 63.1155C106.021 64.3116 107.817 65.5351 109.614 66.7446C109.328 66.9344 109.04 67.1383 108.754 67.3281C108.416 67.5505 108.085 67.7804 107.761 68.0035C107.336 68.2637 106.917 68.5454 106.479 68.7907C105.975 69.0678 105.464 69.3516 104.953 69.6354C104.792 69.7258 104.624 69.8229 104.464 69.9133C104.467 69.8427 104.443 69.7706 104.396 69.7185C104.257 69.548 104.087 69.4184 103.925 69.268C103.777 69.1324 103.607 69.0028 103.451 68.874C103.152 68.6311 102.847 68.3809 102.541 68.1447C101.951 67.6806 101.359 67.2307 100.752 66.794C99.4243 65.8225 98.1037 64.8443 96.7838 63.8519C96.1714 63.3938 95.544 62.9489 94.9167 62.5041C94.2694 62.037 93.6369 61.5565 92.9978 61.0685C92.372 60.5954 91.7536 60.1157 91.1286 59.6285C90.8228 59.3923 90.5177 59.1421 90.2193 58.8992C89.9618 58.687 89.7183 58.4755 89.4459 58.2765C89.1193 58.0322 88.7926 57.7878 88.4511 57.5568C88.1029 57.3183 87.7614 57.0873 87.4058 56.8556C86.7702 56.4315 86.1265 56.0283 85.4835 55.6109C84.8613 55.2018 84.2764 54.7593 83.6922 54.3026C83.4547 54.1127 83.2104 53.9153 82.9655 53.732ZM63.7118 52.9334C64.3927 52.9137 65.0802 52.9015 65.7529 52.9027C66.6947 52.9043 67.6372 52.8918 68.5789 52.8934C68.7364 52.994 68.8855 53.1154 69.0355 53.2227C69.2263 53.3606 69.4238 53.5059 69.622 53.637C70.0377 53.9358 70.4535 54.2346 70.8551 54.5326C71.6591 55.1145 72.5003 55.663 73.3117 56.2382C74.9405 57.4102 76.5849 58.5547 78.2129 59.7408C79.0169 60.3227 79.8209 60.9046 80.6241 61.5006C81.0257 61.7987 81.4348 62.09 81.8207 62.4155C82.2275 62.7492 82.6409 63.0903 83.0402 63.4307C83.8055 64.0742 84.564 64.7103 85.3449 65.3263C85.4058 65.3792 85.4741 65.4254 85.5349 65.4783C83.6276 65.5233 81.7261 65.5899 79.8313 65.664C79.8172 65.6632 79.8031 65.6624 79.7889 65.6617C77.9986 64.2047 76.2009 62.7544 74.3412 61.3999C72.5158 60.0685 70.7134 58.703 68.9564 57.2832C68.3797 56.8199 67.8409 56.3091 67.2716 55.8391C66.709 55.3765 66.1531 54.9214 65.5979 54.4522C65.0561 53.9978 64.5142 53.5435 63.9493 53.1233C63.8743 53.0697 63.7934 52.9945 63.7118 52.9334ZM18.1173 65.8999C17.3651 65.9298 16.6172 66.0095 15.8634 66.0677C15.2018 66.1238 14.5401 66.1799 13.8785 66.236C13.2949 66.2893 12.7165 66.3782 12.1373 66.4813C12.0941 66.4931 12.0518 66.4908 12.0087 66.5026C11.9996 66.148 11.969 65.7994 11.9317 65.4433C11.8483 64.6315 11.6579 63.8351 11.5746 63.0232C11.5869 63.1868 11.5993 63.3503 11.605 63.5064C11.5491 62.7103 11.4866 61.9067 11.4166 61.1097C11.4083 60.741 11.4283 60.3739 11.4557 60C11.4951 59.5348 11.513 59.0755 11.545 58.6169C11.5565 58.4051 11.5888 58.2015 11.6145 57.9904C11.6679 58.05 11.7146 58.1021 11.768 58.1617C12.1953 58.6381 12.6748 59.0678 13.155 59.4834C13.5676 59.8387 14.0026 60.1739 14.4302 60.5158C14.8986 60.8883 15.3736 61.2682 15.8271 61.654C16.0431 61.8498 16.2657 62.0531 16.4809 62.2631C16.7762 62.5624 17.0715 62.8617 17.3669 63.161C17.6622 63.4603 17.9575 63.7597 18.2603 64.0523C18.6306 64.4053 19.0083 64.7515 19.3868 65.0837C19.6844 65.3406 19.982 65.5976 20.2946 65.8412C19.578 65.866 18.848 65.8759 18.1173 65.8999ZM28.6999 65.7174C28.7475 65.7554 28.7875 65.8 28.835 65.838C28.5942 65.8391 28.36 65.8476 28.1192 65.8487C27.0422 65.8609 25.9592 65.8516 24.8762 65.8424C24.5365 65.8381 24.2035 65.8412 23.8705 65.8443C23.3554 65.4198 22.8336 64.9878 22.3036 64.5766C21.9577 64.2958 21.6118 64.0149 21.2593 63.7267C20.9542 63.4764 20.6715 63.2061 20.3672 62.9417C20.4147 62.9797 20.4547 63.0244 20.5022 63.0624C20.1861 62.7548 19.8626 62.454 19.5613 62.1331C19.2126 61.7742 18.8713 61.4087 18.5218 61.064C17.8102 60.3454 17.0614 59.6603 16.2664 59.0435C15.5397 58.4729 14.7914 57.9082 14.0722 57.3309C13.733 57.0575 13.3945 56.77 13.0553 56.4967C12.9061 56.3753 12.7561 56.268 12.5921 56.1599C12.4554 56.0675 12.2898 55.9877 12.1301 55.9294C12.0744 55.9122 12.0187 55.8951 11.9622 55.892C11.9907 55.759 12.0192 55.626 12.0402 55.4997C12.0994 55.1913 12.2152 54.886 12.3027 54.5792C12.5031 53.889 12.7658 53.2234 13.0286 52.5579C14.1355 52.5189 15.2356 52.4725 16.3342 52.4543C16.3409 52.4618 16.3476 52.4692 16.3543 52.4767C16.4411 52.5734 16.5204 52.6769 16.6072 52.7737C16.9203 53.1377 17.2407 53.495 17.5761 53.839C18.3211 54.5947 19.0951 55.3378 19.8475 56.0869C20.5665 56.7987 21.2707 57.5239 21.9599 58.2624C22.6032 58.9347 23.2085 59.6545 23.8138 60.3743C24.3723 61.042 24.945 61.7105 25.5185 62.3648C26.0385 62.9596 26.5875 63.5418 27.115 64.1299C27.3754 64.4203 27.6581 64.6906 27.926 64.9742C28.1961 65.2155 28.4372 65.4694 28.6999 65.7174ZM38.3265 66.0565C36.1139 65.9858 33.9035 65.8727 31.6893 65.8303C31.4659 65.6411 31.2499 65.4452 31.0332 65.2635C30.6829 64.9329 30.3252 64.6089 29.9749 64.2783C29.8399 64.1577 29.7271 64.017 29.5995 63.8897C29.345 63.6209 29.0905 63.3521 28.8286 63.09C28.534 62.7766 28.2469 62.4565 27.9598 62.1364C27.6594 61.8014 27.3515 61.4731 27.0585 61.1314C26.3463 60.2925 25.6409 59.461 24.9436 58.6087C24.3124 57.845 23.6373 57.1073 22.9614 56.3836C22.1312 55.5029 21.2711 54.6488 20.3962 53.8081C19.925 53.3576 19.453 52.9213 18.9967 52.4574C18.9834 52.4425 18.9633 52.4202 18.95 52.4053C19.6093 52.3916 20.2545 52.3771 20.9138 52.3633C22.4949 52.3289 24.0759 52.2944 25.6495 52.2667C25.8197 52.2618 25.9825 52.2635 26.1528 52.2586C26.3412 52.4388 26.5223 52.6257 26.7108 52.8059C27.3689 53.4648 28.0412 54.1245 28.692 54.7902C29.0874 55.2012 29.497 55.6129 29.8925 56.0239C30.2479 56.3902 30.5884 56.7699 30.9289 57.1495C31.5507 57.8277 32.1575 58.5193 32.771 59.2183C33.3778 59.9099 33.9772 60.6081 34.5989 61.2863C34.8927 61.6139 35.179 61.9481 35.481 62.2548C35.8899 62.6807 36.2987 63.1066 36.7075 63.5325C37.284 64.1303 37.8687 64.7074 38.4453 65.3052C38.6931 65.5665 38.9342 65.8204 39.182 66.0817C38.8855 66.0656 38.6023 66.0644 38.3265 66.0565ZM51.6107 66.0704C50.5195 66.0819 49.4291 66.0793 48.332 66.0692C47.3412 66.0579 46.3371 66.0316 45.3388 66.0269C44.1421 66.0256 42.9595 66.0251 41.7613 66.052C41.6193 66.0584 41.4781 66.0508 41.3361 66.0572C40.7627 65.4029 40.1743 64.7619 39.5793 64.1134C38.9977 63.4799 38.4011 62.8597 37.8128 62.2187C37.4456 61.8093 37.0776 61.414 36.7104 61.0045C36.3365 60.5876 35.9916 60.1581 35.6251 59.7346C35.0725 59.0885 34.5347 58.429 33.982 57.7828C33.6089 57.3518 33.2432 56.9141 32.8634 56.4757C32.6038 56.1712 32.3226 55.8727 32.0555 55.5749C31.7884 55.2771 31.5147 54.9719 31.2402 54.6808C30.8247 54.2475 30.4158 53.8216 29.9929 53.395C29.6108 52.9989 29.2279 52.617 28.845 52.235C31.1953 52.2494 33.553 52.2572 35.9099 52.2791C36.0304 52.2785 36.1508 52.278 36.2637 52.2841C36.3921 52.3973 36.5272 52.518 36.6631 52.6245C36.9355 52.8234 37.1938 53.0216 37.4596 53.2131C37.902 53.5416 38.3363 53.891 38.7489 54.2463C40.1025 55.5308 41.4263 56.842 42.7724 58.1332C43.5464 58.8763 44.3419 59.6135 45.1382 60.3366C45.7861 60.9242 46.4415 61.5051 47.0893 62.0927C48.1491 63.0496 49.2246 63.9791 50.2926 64.9153C50.7394 65.2936 51.1713 65.6854 51.6107 66.0704ZM62.4498 65.8593C61.2107 65.8557 59.9716 65.8521 58.7385 65.8701C57.1299 65.8888 55.525 65.9716 53.915 66.0186C52.7602 64.9857 51.6054 63.9527 50.458 62.9131C49.0064 61.6091 47.5838 60.2925 46.1693 58.9551C44.7148 57.5731 43.2835 56.1569 41.8736 54.7348C41.2155 54.0758 40.5722 53.4035 39.8991 52.7579C39.7507 52.6224 39.5956 52.4794 39.4472 52.3439C40.2038 52.3638 40.9671 52.3911 41.7238 52.411C43.6183 52.4715 45.5062 52.5245 47.4 52.5991C47.4324 52.785 47.5146 52.9665 47.6348 53.1005C47.6681 53.1377 47.7015 53.1749 47.7357 53.198C47.936 53.4214 48.2166 53.5995 48.4549 53.7753C48.6932 53.9512 48.9382 54.1344 49.1691 54.3169C49.6649 54.705 50.1467 55.0924 50.6425 55.4805C51.1042 55.8455 51.5957 56.1838 52.0946 56.5154C52.5727 56.8388 53.0136 57.1956 53.4463 57.5732C54.9722 58.945 56.475 60.3509 57.9628 61.7702C59.424 63.1597 60.938 64.4883 62.4364 65.8444C62.4223 65.8437 62.4364 65.8444 62.4498 65.8593ZM69.4849 65.9301C68.3455 65.9178 67.1994 65.898 66.0599 65.8856C65.7626 65.8836 65.4653 65.8816 65.1754 65.8729C63.7713 64.6069 62.3671 63.3409 60.9704 62.0682C59.4379 60.689 57.9582 59.2489 56.4562 57.8289C55.87 57.2801 55.2912 56.7246 54.6982 56.1683C54.368 55.86 54.0385 55.5376 53.6777 55.2701C53.3444 55.0183 52.9962 54.7799 52.6555 54.5348C51.9873 54.0594 51.349 53.5573 50.7188 53.0344C50.583 52.9279 50.4479 52.8073 50.3121 52.7007C51.195 52.7417 52.0854 52.7759 52.9684 52.8168C53.7035 52.8426 54.4378 52.8825 55.1736 52.8942C56.7159 52.9213 58.2582 52.9485 59.8005 52.9757C60.0413 52.9746 60.2747 52.9802 60.5155 52.9792C60.5148 52.9933 60.514 53.0074 60.5207 53.0148C60.5818 53.3227 60.7554 53.5162 60.9855 53.7129C61.4056 54.0614 61.8399 54.4108 62.2749 54.746C62.6831 55.0515 63.0981 55.3644 63.4989 55.6765C64.3481 56.3388 65.1907 56.9936 66.0481 57.635C66.9129 58.2698 67.7613 58.9461 68.6336 59.5742C69.5876 60.2634 70.5341 60.9593 71.4739 61.6477C72.073 62.091 72.6877 62.5068 73.2876 62.936C73.929 63.3816 74.5481 63.8472 75.1739 64.3203C75.7997 64.7933 76.4247 65.2805 77.0356 65.7669C76.745 65.7724 76.4536 65.792 76.1629 65.7974C75.0635 65.8297 73.9626 65.8903 72.8714 65.9018C71.7446 65.9184 70.6169 65.9492 69.4849 65.9301ZM93.8934 69.7354C93.0167 69.0575 92.126 68.3788 91.2642 67.6875C90.8708 67.3687 90.4692 67.0707 90.0683 66.7586C89.9936 66.5704 89.8965 66.4023 89.763 66.2534C89.4499 65.8894 88.988 65.6589 88.5079 65.6328C88.4796 65.6313 88.4655 65.6305 88.4372 65.629C88.4098 65.6133 88.389 65.6051 88.3615 65.5894C88.2709 65.5633 88.1728 65.5438 88.0814 65.5317C87.8572 65.3567 87.6338 65.1675 87.4096 64.9924C86.5686 64.3094 85.7567 63.6137 84.9388 62.8965C84.1558 62.1883 83.3952 61.4601 82.5817 60.7927C81.8224 60.1707 81.0176 59.6029 80.2203 59.0285C78.6057 57.8573 76.9538 56.7194 75.3846 55.494C74.3995 54.7252 73.4525 53.9089 72.4898 53.1201C72.4289 53.0673 72.3681 53.0144 72.2998 52.9682C72.6037 52.9776 72.907 53.0012 73.211 53.0106C74.2143 53.051 75.2244 53.0988 76.2329 53.1749C77.0021 53.2238 77.7781 53.2801 78.5398 53.3357C78.6133 53.4176 78.68 53.492 78.7751 53.568C78.9517 53.7051 79.1135 53.8555 79.2976 53.9859C79.4335 54.0924 79.5767 54.1923 79.7126 54.2988C80.0051 54.52 80.305 54.7346 80.6049 54.9492C80.8982 55.1564 81.2063 55.3501 81.5062 55.5647C81.8136 55.7726 82.1135 55.9872 82.4275 56.2026C83.0482 56.6399 83.6696 57.0632 84.3357 57.4464C84.9943 57.8363 85.6612 58.2054 86.3198 58.5952C87.0193 59.0156 87.7179 59.4502 88.4018 59.8981C89.0106 60.2923 89.5881 60.7415 90.1813 61.1633C90.8153 61.6155 91.45 62.0537 92.0922 62.4851C92.7478 62.9315 93.4026 63.392 94.0813 63.8042C94.7391 64.2082 95.4119 64.5988 96.069 65.017C96.7402 65.4358 97.4181 65.8622 98.0893 66.2811C99.4525 67.127 100.831 67.9597 102.155 68.8673C102.456 69.0677 102.756 69.2823 103.049 69.4895C103.192 69.5893 103.336 69.6892 103.479 69.789C103.575 69.8509 103.656 69.9119 103.745 69.9805C103.854 70.0572 103.95 70.1191 104.06 70.1676C103.307 70.6011 102.561 71.0421 101.815 71.4831C100.87 72.0479 99.861 72.5099 98.8716 72.9944C98.6827 73.0832 98.5004 73.1795 98.3181 73.2759C96.8619 72.0566 95.3817 70.8856 93.8934 69.7354ZM92.5161 74.4901C91.8513 73.8237 91.1961 73.1083 90.3645 72.6453C90.3303 72.6222 90.2961 72.5991 90.2546 72.5826C90.2553 72.5685 90.2569 72.5403 90.2576 72.5261C90.3104 71.6863 90.3847 70.8406 90.3809 69.9977C90.3832 69.9553 90.3781 69.9196 90.3804 69.8773C91.1153 70.4271 91.8569 70.9843 92.5843 71.5408C93.8351 72.5011 95.0777 73.4821 96.3129 74.4699C96.2028 74.5418 96.0852 74.6204 95.975 74.6923C95.4534 75.0392 94.8991 75.3349 94.3582 75.6454C94.2124 75.7224 94.0658 75.8136 93.9267 75.8981C93.4496 75.426 92.9865 74.9547 92.5161 74.4901ZM89.999 77.285C89.9891 76.9446 89.9868 76.5975 89.9918 76.2437C90.0005 75.9538 90.0233 75.6647 90.0535 75.3689C90.2895 75.5871 90.5188 75.7978 90.7474 76.0227C91.1511 76.4129 91.5406 76.8023 91.9369 77.1992C91.3326 77.6337 90.7483 78.0906 90.1507 78.5325C90.0808 78.1251 90.0257 77.7043 89.999 77.285Z" fill="#F36648"/>
</svg>
