<?xml version="1.0" encoding="utf-8"?>
<!-- Generator: Adobe Illustrator 24.2.1, SVG Export Plug-In . SVG Version: 6.00 Build 0)  -->
<svg version="1.1" id="Layer_1" xmlns="http://www.w3.org/2000/svg" xmlns:xlink="http://www.w3.org/1999/xlink" x="0px" y="0px"
	 viewBox="0 0 109 83" style="enable-background:new 0 0 109 83;" xml:space="preserve">
<style type="text/css">
	.st0{fill:#FFFFFF;stroke:#FFFFFF;}
	.st1{fill:#FDB137;}
	.st2{fill:#132E61;}
</style>
<g>
	<path class="st0" d="M108.9,49.6c-0.1-0.4-0.2-0.7-0.5-0.9c-0.2-0.2-0.4-0.3-0.7-0.3c0,0,0,0-0.1,0c-3.9-4.1-8.1-8.2-12.6-12.1
		c3.5-4.1,6.6-8.5,9.3-13.2l0,0c0.1-0.2,0.1-0.5,0.1-0.6c0-0.2-0.1-0.4-0.2-0.6c-0.1-0.1-0.3-0.4-0.6-0.5c-0.4-0.1-0.6,0.2-0.8,0.4
		c-3,4.5-6.3,8.8-9.9,12.8c-4.3-3.6-8.9-6.8-13.7-9.6c2.1-4.7,3-10.7,3.4-15.7c0-0.4-0.1-0.8-0.5-1c-0.2-0.1-0.5-0.1-0.7,0.1
		c-0.2,0.2-0.3,0.4-0.3,0.6l0.5,0.1l-0.5-0.1c-0.5,2.6-1.1,5.2-1.8,7.8c-0.1,0.2-0.1,0.5-0.2,0.7c-0.5,2.2-1.1,4.3-1.6,6.6
		c-5.1-2.8-10.5-5-16.1-6.4c1-3.5,1.4-7.5,1.7-11.2c0.1-1.1,0.2-2.2,0.3-3.2c0.1-0.5-0.2-1-0.6-1.2C63,2,62.7,2,62.4,2.2
		c-0.2,0.2-0.4,0.4-0.4,0.7l0,0c-0.2,1-0.4,2-0.6,3c-0.8,3.7-1.5,7.7-1.6,11.4c-3.7-0.8-7.4-1.2-11.3-1.1c-2.6,0-5,0.3-7.4,0.7
		C40.8,11.6,38.7,5.6,36.4,1c-0.1-0.2-0.3-0.5-0.6-0.5c-0.4-0.1-0.6,0.2-0.7,0.3c-0.1,0.2-0.2,0.4-0.2,0.6c0,0.2,0,0.4,0,0.6l0,0
		c0.4,1.2,0.7,2.3,1.1,3.5c0.6,1.8,1.2,3.6,1.7,5.5c0.2,0.9,0.4,1.8,0.6,2.7c0.1,0.3,0.1,0.6,0.2,0.8c0.2,0.9,0.4,1.8,0.7,2.8
		c-4.8,1.1-9.1,3-13.2,5.6c-0.7-2.3-1.6-4.5-2.4-6.7c-0.1-0.2-0.2-0.5-0.3-0.7c-0.9-2.5-1.9-5-2.6-7.5L20.2,8l0.5-0.1
		c-0.1-0.2-0.2-0.4-0.4-0.5c-0.2-0.2-0.5-0.1-0.7,0c-0.3,0.2-0.5,0.7-0.4,1c1,5,2.6,11,5.3,15.4c-4.8,3.3-9.1,7.4-13,11.9
		c-4-3.9-6.9-8.4-9.8-13.2l0,0c-0.1-0.2-0.4-0.5-0.8-0.4c-0.3,0-0.5,0.3-0.6,0.4c-0.1,0.2-0.2,0.4-0.2,0.5c0,0.2,0,0.4,0.1,0.6l0,0
		c0,0,0,0,0,0c0,0,0,0,0,0h0C2.4,29,6,33.6,10,37.6c-3.2,4.1-6.1,8.5-8.7,12.9c0,0-0.1,0-0.1,0c-0.2,0-0.5,0.2-0.7,0.3
		c-0.3,0.3-0.4,0.6-0.4,0.9c0,0.3,0,0.5,0,0.8c0,0.2,0.1,0.4,0.2,0.6l-0.1,0.1l0.4,0.3c4.4,2.7,9.3,5.1,14.6,7
		c-2.4,4.3-3.9,9.1-4.9,13.8l0,0c-0.1,0.2,0,0.5,0.1,0.6c0.1,0.2,0.2,0.3,0.3,0.5c0.1,0.1,0.4,0.2,0.7,0.1c0.3-0.1,0.4-0.4,0.5-0.6
		c1.4-4.8,3.4-9.1,5.6-13.6c4.5,1.5,9.3,2.7,14.2,3.6c-1.2,4.6-1.3,10.1-1.1,14.7c0,0.4,0.2,0.8,0.6,0.9c0.2,0.1,0.5,0,0.7-0.2
		c0.2-0.2,0.2-0.4,0.2-0.6l-0.5,0l0.5,0c0.2-2.7,0.5-5.3,0.8-7.9c0-0.3,0.1-0.5,0.1-0.8c0.2-1.9,0.5-3.9,0.7-5.8
		c6,1,12.2,1.5,18.6,1.5c0.3,0,0.6,0,0.9,0c0,3.9,0.1,10.4,0.2,11.7c0,1.1,0.1,2.2,0.1,3.3v0c0,0.5,0.3,1,0.9,1c0.5,0,0.8-0.5,0.8-1
		l-1-15c0.2,0,0.4,0,0.6,0c6.2-0.1,12.4-0.8,18.5-1.9c0.2,2.1,0.4,4.2,0.7,6.3c0,0.3,0.1,0.5,0.1,0.8c0.3,2.6,0.6,5.3,0.8,7.9l0.5,0
		l-0.5,0c0,0.2,0.1,0.4,0.2,0.6c0.2,0.2,0.5,0.2,0.7,0.2c0.4-0.1,0.6-0.5,0.6-0.9c0.2-4.7,0.1-10.5-1.2-15.2c2.3-0.5,4.5-1,6.7-1.6
		c0,0,0,0,0,0l0.5-0.1c2.9-0.8,5.9-1.7,8.8-2.7c0.4,0.7,0.8,1.4,1.2,2.1l0,0c0.7,1.2,1.4,2.3,1.9,3.5c1.1,2.7,1.7,5.6,2.1,8.5l0,0
		c0,0.2,0.1,0.4,0.3,0.6c0.2,0.2,0.5,0.2,0.7,0.1c0.4-0.1,0.6-0.5,0.6-0.9c0-3.1-0.6-6.1-1.6-9c-0.4-1.2-1-2.8-1.8-4.2
		c-0.3-0.5-0.6-1-0.9-1.5c5.3-2,10.4-4.4,14.6-7.7c0.3-0.2,0.5-0.5,0.5-0.9C109,50.2,109,49.9,108.9,49.6z M97.6,73.8
		c0,0.5-0.5,0.7-0.6,0.1l-1-9C97,67.8,97.5,70.8,97.6,73.8z M25.5,23.1l0.1,0c0,0,0,0,0,0L25.5,23.1z M100.6,51.6
		c-2,1-3.8,2-5.7,2.8c-4.1,1.7-8.3,3.2-12.6,4.4c-8.9,2.5-18.1,3.8-27.5,4C38.3,63.2,21.8,59.4,3,51.1
		c10.9-16.9,25.4-32.6,46.9-32.2c16.6,0.4,30.2,8.6,42.7,18.7c0.1,0.1,0.2,0.2,0.3,0.3c0,0,0.1,0,0.1,0c4.2,3.4,8.3,7,12.3,10.6
		c0.2,0.2,0.3,0.3,0.5,0.5c-1.8,0.8-3.5,1.7-5,2.5L100.6,51.6z"/>
	<path class="st1" d="M70.4,39.2C69.3,28,58.9,20.6,48,22.2c-4,0.6-7.7,2.6-10.2,5.7c-4.4,3.7-7.1,9.6-6.2,15.6
		C33,53.7,43.1,61,53.1,59.7C63.3,58.5,71.4,49.7,70.4,39.2z"/>
	<path class="st2" d="M58.6,29.8c-0.4-4.4-4.4-7.4-8.6-6.7c-1.5,0.2-3,1-3.9,2.3c-1.7,1.5-2.7,3.8-2.4,6.2c0.6,4,4.4,6.9,8.3,6.4
		C55.9,37.4,59,34,58.6,29.8z"/>
</g>
</svg>
