<?xml version="1.0" encoding="utf-8"?>
<!-- Generator: Adobe Illustrator 24.2.3, SVG Export Plug-In . SVG Version: 6.00 Build 0)  -->
<svg version="1.1" id="Layer_1" xmlns="http://www.w3.org/2000/svg" xmlns:xlink="http://www.w3.org/1999/xlink" x="0px" y="0px"
	 viewBox="0 0 109 83" style="enable-background:new 0 0 109 83;" xml:space="preserve">
<style type="text/css">
	.st0{fill:#FFFFFF;}
	.st1{fill:#FDB137;}
</style>
<g>
	<path class="st0" d="M108.4,49.3L108.4,49.3c0-0.1,0-0.2,0-0.2c0,0,0-0.1-0.1-0.2c0-0.1-0.1-0.2-0.1-0.3
		c-4.4-4.7-8.6-8.7-12.8-12.3c3.5-4.2,6.6-8.6,9.3-13.1c0,0,0.1-0.2,0.1-0.2c0,0,0-0.1,0-0.1c0-0.1,0-0.2,0-0.3
		c0-0.3-0.1-0.5-0.3-0.7c0,0,0,0-0.1-0.1c0,0-0.1-0.1-0.1-0.1c-0.1,0-0.1-0.1-0.2-0.1c-0.1,0-0.2,0-0.3,0c0,0-0.1,0-0.2,0.1
		c0,0-0.1,0.1-0.2,0.1c0,0-0.1,0.1-0.2,0.2c-3,4.4-6.3,8.7-9.8,12.8c-4.5-3.7-9.1-6.9-13.5-9.5c0.1-0.2,0.3-0.5,0.4-0.8
		c0.1-0.1,0.2-0.3,0.2-0.4c0.2-0.3,0.3-0.7,0.5-1.1c0.1-0.3,0.2-0.5,0.3-0.8l0.1-0.4c0.3-0.7,0.5-1.5,0.7-2.2l0.1-0.2
		c0.1-0.3,0.2-0.7,0.3-1c0.8-2.5,1.7-5.5,2.1-8.6c0.1-0.4-0.2-1-0.7-1.1c-0.3-0.1-0.7,0.1-0.8,0.5c-0.5,1.5-1,3-1.5,4.5
		c-0.4,1.3-0.8,2.7-1.3,4.1c-0.1,0.4-0.3,0.7-0.4,1.1L79.9,19c-0.2,0.4-0.3,0.8-0.5,1.2c-0.3,0.8-0.7,1.8-1.1,2.8
		c-0.2,0.4-0.3,0.8-0.4,1.2c-2.5-1.4-5.1-2.6-7.6-3.6c0,0-0.1-0.1-0.1-0.1c-0.7-0.3-1.4-0.6-2.1-0.8c-2-0.7-4.1-1.4-6.1-1.8
		c1-3.5,1.4-7.4,1.7-11.2c0.1-1.1,0.2-2.1,0.3-3.1c0-0.2,0-0.4-0.1-0.7c0-0.1-0.1-0.2-0.1-0.2c0,0-0.1-0.1-0.1-0.1
		c-0.1-0.1-0.1-0.1-0.2-0.1c0,0-0.1,0-0.1,0c-0.1,0-0.2-0.1-0.2-0.1c-0.4-0.1-0.8,0.1-0.9,0.8c-0.2,1-0.4,1.9-0.6,3
		c-0.8,3.8-1.6,7.6-1.6,11.4c-3.7-0.8-7.3-1.1-10.9-1.1l-0.4,0c-2.5,0-5,0.3-7.4,0.7c0-0.5-0.1-0.9-0.1-1.5c-0.1-0.6-0.2-1.3-0.3-2
		l-0.1-0.4c-0.1-0.6-0.2-1.2-0.4-1.8L40.5,11c-0.2-0.6-0.3-1.2-0.5-1.8c0,0,0-0.1,0-0.1c-0.8-2.7-1.9-5.3-3.2-7.8
		c-0.4-0.7-0.9-0.5-1-0.5c-0.1,0-0.1,0.1-0.2,0.1c0,0,0,0,0,0c-0.1,0.1-0.2,0.2-0.3,0.4c0,0.1-0.1,0.2-0.1,0.3c0,0.1,0,0.2,0,0.3
		c0,0.1,0,0.1,0,0.2c0.4,1.2,0.7,2.3,1.1,3.5c0.4,1.2,0.8,2.4,1.2,3.6l0.1,0.3c0,0,0,0,0,0c0.1,0.5,0.3,1,0.4,1.5
		c0.2,0.9,0.4,1.8,0.6,2.7c0.2,0.8,0.3,1.5,0.5,2.3c0,0.2,0.1,0.4,0.2,0.5l0.2,0.6c0,0,0,0.1,0,0.1c-1.9,0.5-3.9,1.1-5.8,1.8
		l-0.4,0.1c-0.6,0.2-1.1,0.5-1.7,0.7l-0.4,0.2c-0.5,0.2-1,0.5-1.6,0.8l-0.3,0.1c-1.7,0.9-3.4,1.9-5,3c-3.5-4.7-5.4-9.6-7.2-15.5
		c0,0,0-0.1-0.1-0.1c0-0.1-0.1-0.2-0.2-0.3c0,0-0.1-0.1-0.1-0.1C16.9,8,16.8,8,16.6,7.9c-0.1,0-0.2,0-0.3,0c-0.4,0.1-0.7,0.5-0.7,1
		c0.7,6.9,4.1,12.7,6.9,16.6c-3.7,2.8-7.3,6.2-10.6,10.2c-3.8-3.8-6.7-8-9.8-13.1c-0.3-0.5-0.7-0.5-1-0.4c-0.2,0.1-0.5,0.7-0.5,0.9
		c0,0.1,0,0.2,0,0.2c0,0,0,0.1,0,0.1c0,0.1,0,0.2,0,0.2c0.5,1.2,1.2,2.5,1.9,3.8l0.3,0.5c0.3,0.4,0.5,0.9,0.8,1.3
		c0.1,0.2,0.2,0.3,0.3,0.5l0.1,0.2c0.3,0.4,0.5,0.7,0.8,1.1c0.1,0.2,0.2,0.3,0.4,0.5l0.2,0.2c0.3,0.3,0.5,0.7,0.8,1
		c0.1,0.1,0.2,0.3,0.4,0.4l0.1,0.2c0.3,0.4,0.6,0.8,0.9,1.1L8,35.1c0.8,0.9,1.6,1.7,2.3,2.5c-3.2,4-6.3,8.6-9.2,13.7
		c-0.1,0.1-0.1,0.2-0.1,0.3c0,0.1,0,0.2,0,0.3c0,0.2,0.1,0.5,0.3,0.6c0,0,0,0,0,0c0,0,0.1,0.1,0.1,0.1c0.2,0.1,0.6,0.1,0.8-0.1
		c4.2,2.6,8.9,4.8,13.9,6.7c-1.2,2-2.3,4.3-3.3,6.9c-0.9,2.4-1.6,5-2.3,7.9c0,0.1,0,0.2,0,0.3c0,0,0,0,0,0c0,0.1,0,0.2,0.1,0.3
		c0,0.1,0.1,0.2,0.1,0.2c0.1,0.2,0.3,0.3,0.5,0.4c0.3,0.1,0.7-0.1,0.9-0.6c1.5-5.4,4-10.3,6.1-14.6c4.7,1.6,9.8,2.8,15,3.7
		c-0.1,0.4-0.3,0.9-0.4,1.4c-0.2,0.6-0.3,1.2-0.4,1.9c0,0,0,0.2,0,0.2c-0.1,0.6-0.2,1.2-0.3,1.9c0,0,0,0.1,0,0.1
		c-0.1,0.6-0.2,1.3-0.2,1.9l0,0.1c-0.1,0.6-0.1,1.3-0.1,2c0,0,0,0.1,0,0.1c0,0.6,0,1.3,0,1.9v0.2c0,1.4,0,2.6,0.1,3.9
		c0,0.3,0.2,0.6,0.4,0.8c0.1,0.1,0.2,0.1,0.3,0.1c0.1,0,0.3,0,0.4,0c0.1,0,0.2-0.1,0.3-0.2c0,0,0,0,0.1-0.1c0,0,0,0,0,0
		c0,0,0-0.1,0-0.1c0-0.1,0.1-0.2,0.1-0.2c0-0.1,0-0.1,0.1-0.2c0.2-2.9,0.6-5.8,1-8.7c0.2-1.4,0.4-2.8,0.6-4.3
		c0.1-0.7,0.2-1.4,0.2-2.1l0-0.3c0,0,0,0,0,0c2.8,0.4,5.8,0.8,8.8,1l0.6,0c1.5,0.1,2.8,0.2,4,0.2c0.2,0,0.4,0,0.5,0l1,0
		c0.8,0,1.6,0,2.5,0l0.5,0c0.1,0.1,0.1,0.1,0.2,0.2c-0.3,1-0.2,3.2,0,6.3c0,0.5,0.1,0.9,0.1,1.1c0,1.7,0.1,3.5,0.1,5.1l0,0.1
		c0,1,0.1,2.1,0.1,3.2c0,0.6,0.4,1,0.8,1c0.4,0,0.8-0.3,0.8-1c0.1-5.4,0.2-10.8,0.2-16c5.7-0.1,11.5-0.7,17.1-1.8
		c0.1,0.1,0.2,0.1,0.2,0.1l0.2,0.1c0,0,0.1,0,0.1,0c0.6,1,2,5.8,2.2,6.3c0.6,2.6,0.8,5.4,0.6,8c0,0.2,0,0.4,0.2,0.7
		c0,0.1,0.1,0.2,0.2,0.3c0.1,0.1,0.1,0.1,0.3,0.2c0,0,0.1,0.1,0.3,0.1c0.1,0,0.2,0,0.2-0.1c0,0,0.1,0,0.1,0c0,0,0.1-0.1,0.2-0.1
		c0.1-0.1,0.1-0.1,0.1-0.2c0,0,0.1-0.1,0.1-0.2c0,0,0-0.1,0-0.1c0,0,0,0,0,0c0,0,0-0.1,0.1-0.2c0.1-1.3,0.2-2.6,0.2-3.9l0-0.1
		c0-0.4,0-0.7,0-1.1l0-0.2c0-0.4,0-0.8-0.1-1.2c0,0,0-0.1,0-0.1c-0.1-1.4-0.4-2.7-0.7-4c-0.1-0.2-0.1-0.4-0.2-0.8
		c-0.3-1.2-0.7-2.8-1.3-4.1c2.1-0.4,4.1-0.9,6.1-1.5c3.7-1,6.7-1.9,9.5-2.9c0.4,0.8,0.9,1.6,1.3,2.3l0.8,1.3
		c0.2,0.3,0.3,0.6,0.5,0.9c0.2,0.3,0.3,0.7,0.5,1l0.2,0.5c0.2,0.5,0.4,1.1,0.6,1.6l0.2,0.5c0.2,0.5,0.3,1,0.4,1.5
		c0.1,0.2,0.1,0.4,0.2,0.7c0.1,0.5,0.2,0.9,0.3,1.4c0.1,0.3,0.1,0.6,0.2,0.9c0,0.3,0.1,0.6,0.1,0.9l0.1,0.7c0,0.1,0,0.1,0,0.1
		c0,0.1,0,0.2,0.1,0.2c0,0,0,0,0,0.1c0,0,0,0,0,0c0,0,0,0,0,0.1c0.1,0.1,0.2,0.2,0.4,0.2c0.1,0,0.1,0,0.2,0c0.1,0,0.1,0,0.2,0
		c0.4-0.1,0.6-0.5,0.6-0.9c0-3.1-0.6-6.1-1.6-9c-0.5-1.4-1.4-4-2.8-5.9c5.9-2.2,10.5-4.6,14.1-7.4c0.1-0.1,0.2-0.2,0.3-0.4
		c0.1-0.1,0.1-0.2,0.2-0.3c0,0,0-0.1,0-0.1C108.4,49.4,108.4,49.4,108.4,49.3L108.4,49.3C108.4,49.3,108.4,49.3,108.4,49.3
		L108.4,49.3z M100.8,51.4c-1.9,1-3.8,2-5.7,2.8c-4.1,1.7-8.3,3.2-12.6,4.4c-8.8,2.5-18,3.9-27.4,4c-3.1,0.1-6.4,0-9.6-0.3l-0.4,0
		c-0.9-0.1-1.8-0.2-2.7-0.3L41.7,62c-1-0.1-1.9-0.2-2.9-0.4l-0.4-0.1c-3.3-0.5-6.7-1.2-10.1-2c-7.8-1.9-16-4.8-24.9-8.8
		c2.9-4.5,5.7-8.4,8.6-11.8c3.4-4.1,7-7.6,10.6-10.4c4-3.2,8.3-5.6,12.6-7.2c3.3-1.2,6.8-2,10.4-2.3c0.5,0,1.1-0.1,1.6-0.1l0.3,0
		c0.5,0,1,0,1.5,0l0.6,0l0.5,0c1.6,0,3.2,0.2,5,0.4l0.4,0c0.2,0,0.3,0,0.5,0.1c0.5,0.1,1,0.2,1.6,0.2l0.7,0.1c0.2,0,0.5,0.1,0.7,0.1
		c0.5,0.1,1.1,0.2,1.6,0.3l0.6,0.1c0.2,0.1,0.5,0.1,0.7,0.2c0.6,0.2,1.3,0.3,1.9,0.5l0.4,0.1c0.2,0.1,0.4,0.1,0.5,0.2
		c0.8,0.2,1.5,0.5,2.3,0.8l0.5,0.2c1.9,0.7,3.8,1.5,5.7,2.4c1.3,0.6,2.7,1.4,4.2,2.2l0.6,0.3c0.6,0.3,1.2,0.7,1.9,1.1l0.6,0.3
		c0.7,0.4,1.3,0.8,2,1.3l0.4,0.3c0.7,0.5,1.5,1,2.3,1.5l0.3-0.4l0,0l-0.1,0.5c2.5,1.7,5,3.6,7.7,5.8c0.1,0.2,0.3,0.3,0.5,0.4
		c4.2,3.4,8.3,7,12.3,10.5l0.3,0.3C104.2,49.6,102.4,50.5,100.8,51.4z M70.1,20.9L70.1,20.9L70.1,20.9L70.1,20.9z M39.4,9.2
		L39.4,9.2L39.4,9.2L39.4,9.2z M35.6,1.6L35.6,1.6L35.6,1.6L35.6,1.6z M35.6,1.8L35.6,1.8L35.6,1.8L35.6,1.8z M35.6,2
		C35.6,2,35.6,2,35.6,2L35.6,2L35.6,2z M32.4,73.4C32.4,73.4,32.4,73.4,32.4,73.4L32.4,73.4L32.4,73.4z M77.5,71.9L77.5,71.9
		L77.5,71.9L77.5,71.9z"/>
	<path class="st1" d="M48.3,22.3c-4,0.6-7.7,2.6-10.2,5.7c-4.4,3.7-7,9.6-6.2,15.6c1.5,10.1,11.5,17.3,21.5,16.1
		c10.2-1.3,18.2-10,17.2-20.5C69.6,28.1,59.2,20.6,48.3,22.3z"/>
</g>
</svg>
