<?xml version="1.0" encoding="utf-8"?>
<!-- Generator: Adobe Illustrator 24.2.3, SVG Export Plug-In . SVG Version: 6.00 Build 0)  -->
<svg version="1.1" id="Layer_1" xmlns="http://www.w3.org/2000/svg" xmlns:xlink="http://www.w3.org/1999/xlink" x="0px" y="0px"
	 viewBox="0 0 50 74" style="enable-background:new 0 0 50 74;" xml:space="preserve">
<style type="text/css">
	.st0{fill:#FFFFFF;}
</style>
<g>
	<path class="st0" d="M12.1,19.6c-6.5,0-11.8,5.3-11.8,11.8c0,4.5,2.5,8.4,6.2,10.4H0.2v0.7c0,6.5,5.3,11.8,11.8,11.8
		s11.8-5.3,11.8-11.8c0-4.5-2.5-8.4-6.2-10.4h6.2v-0.7C23.9,24.9,18.6,19.6,12.1,19.6z M22.5,42.6c0,5.7-4.7,10.4-10.4,10.4
		c-5.5,0-10-4.3-10.4-9.7h10.4h0.7V32.2C18.2,32.6,22.5,37.1,22.5,42.6z M12.1,30.7h-0.7v11.1c-5.4-0.4-9.7-4.9-9.7-10.4
		C1.7,25.7,6.3,21,12.1,21c5.5,0,10,4.3,10.4,9.7H12.1z"/>
	<path class="st0" d="M49.6,31.4c0-6.5-5.3-11.8-11.8-11.8c-6.3,0-11.4,4.9-11.8,11.1h0v0.7v11.1v0.7h0c0.4,6.2,5.5,11.1,11.8,11.1
		c6.5,0,11.8-5.3,11.8-11.8c0-2-0.5-3.9-1.4-5.6C49.1,35.3,49.6,33.5,49.6,31.4z M37.8,21c5.7,0,10.4,4.7,10.4,10.4
		c0,1.5-0.3,2.9-0.9,4.1c-2.2-2.9-5.6-4.9-9.5-4.9H27.4C27.8,25.3,32.3,21,37.8,21z M37.8,32.2c3.7,0,6.9,1.9,8.8,4.8
		c-1.8,2.9-5.1,4.8-8.8,4.8H27.4v-9.7H37.8z M48.2,42.6c0,5.7-4.7,10.4-10.4,10.4c-5.5,0-10-4.3-10.4-9.7h10.4
		c3.9,0,7.4-1.9,9.5-4.9C47.9,39.7,48.2,41.1,48.2,42.6z"/>
</g>
</svg>
