<svg width="50" height="74" viewBox="0 0 105 74" fill="none" xmlns="http://www.w3.org/2000/svg">
<path d="M25.3333 25.3333V48.6667H2C2 61.6296 12.3704 72 25.3333 72C38.2963 72 48.6667 61.6296 48.6667 48.6667C48.6667 35.7037 38.2963 25.3333 25.3333 25.3333Z" stroke="white" stroke-width="3" stroke-miterlimit="10"/>
<path d="M48.6667 25.3333C48.6667 12.3704 38.2963 2 25.3333 2C12.3704 2 2 12.3704 2 25.3333C2 38.2963 12.3704 48.6667 25.3333 48.6667V25.3333H48.6667Z" stroke="white" stroke-width="3" stroke-miterlimit="10"/>
<path d="M79.3333 25.3333H56V48.6667C56 61.6296 66.3704 72 79.3333 72C92.2963 72 102.667 61.6296 102.667 48.6667C102.667 35.7037 92.2963 25.3333 79.3333 25.3333Z" stroke="white" stroke-width="3" stroke-miterlimit="10"/>
<path d="M79.3333 2C66.3704 2 56 12.3704 56 25.3333V48.6667H79.3333C92.2963 48.6667 102.667 38.2963 102.667 25.3333C102.667 12.3704 92.2963 2 79.3333 2Z" stroke="white" stroke-width="3" stroke-miterlimit="10"/>
</svg>
