<svg width="47" height="44" viewBox="0 0 47 44" fill="none" xmlns="http://www.w3.org/2000/svg">
<path d="M11.3735 5.23064C11.6535 5.23064 11.7935 5.21064 11.8835 5.18064C11.9035 5.17064 11.9235 5.17064 11.9435 5.16064C12.1035 5.11064 12.0635 4.95064 12.0535 4.88064C12.0435 4.85064 12.0435 4.82064 12.0435 4.81064L12.0635 4.51064C12.0635 4.44064 12.0735 4.37064 12.0835 4.30064C12.0935 4.26064 12.0935 4.22064 12.1035 4.15064C12.1035 4.10064 12.0835 4.06064 12.0535 4.02064C12.0235 3.99064 11.9735 3.97064 11.9235 3.97064C11.7835 3.97064 11.6635 4.01064 11.5535 4.04064L11.5235 4.05064C11.3935 4.10064 11.2735 4.16064 11.1635 4.24064C11.1435 4.25064 11.1135 4.27064 11.0835 4.28064C10.9835 4.33064 10.8235 4.41064 10.8435 4.59064C10.8635 4.80064 10.9735 4.98064 11.2035 5.15064C11.2535 5.21064 11.3135 5.23064 11.3735 5.23064Z" fill="white"/>
<path d="M14.1531 5.83063C14.2031 5.84063 14.2431 5.84063 14.3031 5.84063C14.4531 5.82063 14.5531 5.81063 14.6331 5.80063C14.7131 5.79063 14.7631 5.79063 14.7831 5.78063C14.7931 5.78063 14.8031 5.78063 14.8131 5.77063C14.8731 5.75063 14.8931 5.71063 14.9031 5.69063C14.9231 5.61063 14.8631 5.56063 14.8231 5.53063C14.8131 5.52063 14.7931 5.50063 14.7731 5.48063C14.7231 5.39063 14.6531 5.27063 14.6131 5.11063C14.5931 5.03063 14.5131 4.97063 14.4331 4.97063C14.2031 4.96063 13.9831 5.04063 13.8331 5.17063C13.8231 5.18063 13.8031 5.19063 13.7831 5.20063C13.7131 5.24063 13.5431 5.34063 13.6331 5.51063C13.7231 5.66063 13.8831 5.77063 14.1531 5.83063Z" fill="white"/>
<path d="M8.82352 9.02063C9.03352 9.02063 9.18352 9.01063 9.30352 8.97063C9.34352 8.96063 9.38352 8.94063 9.42352 8.93063C9.57352 8.87063 9.56352 8.72064 9.55352 8.64064C9.55352 8.61064 9.54352 8.57064 9.55352 8.55064L9.62352 8.21064C9.63352 8.13064 9.65352 8.06063 9.67352 7.99063C9.68352 7.94063 9.69352 7.89064 9.71352 7.84064V7.78064C9.71352 7.73064 9.68352 7.69064 9.65352 7.66064C9.61352 7.63064 9.57352 7.62064 9.53352 7.62064C9.38352 7.63064 9.26352 7.68063 9.13352 7.72063L9.09352 7.73064C8.95352 7.79064 8.82352 7.86063 8.70352 7.95063C8.67352 7.97063 8.64352 7.98064 8.61352 8.00064C8.50352 8.06064 8.35352 8.14064 8.35352 8.32064C8.35352 8.55064 8.44352 8.74063 8.66352 8.95063C8.70352 9.00063 8.76352 9.02063 8.82352 9.02063Z" fill="white"/>
<path d="M12.8038 12.2806H12.8138C13.1738 12.1606 13.3338 12.0006 13.4338 11.8706C13.5438 11.7406 13.5238 11.5806 13.5038 11.4606C13.4938 11.4106 13.4838 11.3606 13.4938 11.3106C13.5038 11.1406 13.5038 10.9706 13.5038 10.7806C13.4938 10.6906 13.4938 10.6106 13.4938 10.5306C13.4938 10.4306 13.4938 10.3406 13.4838 10.2406C13.4838 10.2006 13.4638 10.1706 13.4438 10.1406C13.4138 10.1106 13.3738 10.0906 13.3338 10.0806C13.2938 10.0806 13.2438 10.0906 13.2138 10.1206C13.0938 10.2206 12.9938 10.3306 12.9038 10.4406L12.8138 10.5406C12.6938 10.6906 12.5838 10.8406 12.4838 11.0006C12.4638 11.0406 12.4238 11.0806 12.3938 11.1206C12.3038 11.2306 12.1938 11.3806 12.2238 11.5606C12.2438 11.7406 12.3138 11.9806 12.6038 12.2406C12.6638 12.2906 12.7338 12.3006 12.8038 12.2806Z" fill="white"/>
<path d="M23.5643 11.7806C23.5043 11.6106 23.4543 11.4406 23.3943 11.2606C23.3543 11.1406 23.3243 11.0306 23.2943 10.9106C23.2743 10.8406 23.2643 10.7806 23.2443 10.7106C23.2343 10.6706 23.2043 10.6406 23.1743 10.6206C23.1343 10.6006 23.0943 10.5906 23.0443 10.6006C23.0043 10.6006 22.9643 10.6306 22.9443 10.6706C22.8343 10.8406 22.7543 11.0306 22.6743 11.2206L22.6643 11.2406C22.5943 11.4406 22.5443 11.6506 22.5143 11.8606C22.5043 11.9106 22.4943 11.9606 22.4843 12.0106C22.4443 12.1806 22.3943 12.3806 22.5043 12.5506C22.5943 12.7106 22.7643 12.9506 23.1743 13.0606C23.2143 13.0706 23.2443 13.0706 23.2843 13.0606C23.3243 13.0506 23.3543 13.0306 23.3843 13.0006C23.6343 12.7106 23.7043 12.5006 23.7443 12.3306C23.7843 12.1706 23.7143 12.0406 23.6443 11.9306C23.6143 11.8806 23.5843 11.8306 23.5643 11.7806Z" fill="white"/>
<path d="M21.0642 6.93063C21.0742 6.93063 21.0742 6.93063 21.0842 6.92063C21.4342 6.78063 21.5942 6.63063 21.7142 6.49063C21.8242 6.37063 21.8142 6.22064 21.8142 6.09064C21.8142 6.03064 21.8142 5.98063 21.8142 5.93063C21.8442 5.76063 21.8742 5.58064 21.9042 5.39064C21.9242 5.27064 21.9442 5.15064 21.9742 5.03064C21.9942 4.96064 22.0042 4.90063 22.0242 4.83063C22.0342 4.79063 22.0242 4.75064 22.0042 4.71064C21.9642 4.63064 21.8642 4.60063 21.7842 4.65063C21.6042 4.75063 21.4542 4.88063 21.2942 5.01063L21.2742 5.03064C21.1142 5.17064 20.9742 5.34063 20.8542 5.51063C20.8242 5.55063 20.7942 5.59063 20.7542 5.63063C20.6342 5.76063 20.5042 5.91064 20.5142 6.12064C20.5242 6.31064 20.5642 6.60063 20.8742 6.88063C20.9242 6.93063 20.9942 6.95063 21.0642 6.93063Z" fill="white"/>
<path d="M31.4843 8.66064H31.4643C31.3743 8.64064 31.2843 8.70064 31.2643 8.79064C31.2543 8.85064 31.2443 8.91064 31.2343 8.97064C31.2243 9.05064 31.2043 9.12064 31.1843 9.21064L31.1143 9.59064C31.1043 9.62064 31.0943 9.65064 31.0743 9.69064C31.0343 9.78064 30.9743 9.91064 31.0743 10.0306C31.1543 10.1406 31.2743 10.2606 31.6043 10.4106C31.6543 10.4306 31.7143 10.4406 31.7643 10.4206C31.7743 10.4206 31.7843 10.4106 31.7943 10.4106C32.0643 10.2906 32.2243 10.1406 32.3143 9.92064C32.3843 9.75064 32.2843 9.61064 32.2143 9.50064C32.1943 9.47064 32.1743 9.44064 32.1543 9.41064C32.0843 9.27064 31.9943 9.14064 31.8843 9.01064L31.8443 8.97064C31.7543 8.87064 31.6543 8.77063 31.5243 8.68063L31.4843 8.66064Z" fill="white"/>
<path d="M25.9632 4.77063C25.9832 4.77063 26.0132 4.77064 26.0332 4.76064C26.0732 4.75064 26.1132 4.73063 26.1432 4.70063C26.4032 4.42063 26.4332 4.20064 26.4232 4.05064C26.4232 3.87064 26.2732 3.78064 26.1632 3.71064C26.1332 3.69064 26.0932 3.67063 26.0732 3.65063C25.9532 3.55063 25.8132 3.46064 25.6732 3.39064L25.6232 3.37064C25.5032 3.32064 25.3732 3.26064 25.2132 3.23064H25.1432C25.0632 3.25064 24.9932 3.34063 25.0132 3.43063C25.0232 3.49063 25.0432 3.55063 25.0532 3.61063C25.0732 3.69063 25.0932 3.76064 25.1032 3.85064L25.1832 4.23064C25.1932 4.26064 25.1932 4.30064 25.1932 4.33064C25.1932 4.43064 25.1932 4.57064 25.3232 4.64064C25.4432 4.70064 25.6032 4.76063 25.9632 4.77063Z" fill="white"/>
<path d="M34.5132 7.03064C34.5432 7.03064 34.5732 7.03064 34.6032 7.02064C34.6432 7.01064 34.6732 6.99064 34.7032 6.96064C34.9732 6.68064 35.0032 6.45064 35.0032 6.28064C35.0032 6.09064 34.8632 5.99064 34.7432 5.90064C34.7132 5.88064 34.6732 5.85064 34.6532 5.83064C34.5332 5.71064 34.3932 5.61064 34.2332 5.52064L34.1832 5.50064C34.0532 5.43064 33.9132 5.36064 33.7632 5.32064C33.7332 5.31064 33.7132 5.31064 33.6732 5.32064C33.5832 5.34064 33.5332 5.43064 33.5532 5.52064C33.5632 5.58064 33.5832 5.64064 33.6032 5.70064C33.6232 5.79064 33.6532 5.87064 33.6632 5.97064L33.7532 6.38064C33.7632 6.41064 33.7632 6.45064 33.7632 6.50064C33.7632 6.60064 33.7632 6.75064 33.8832 6.83064C33.9932 6.91064 34.1532 6.99064 34.5132 7.03064Z" fill="white"/>
<path d="M37.763 10.8806C37.793 10.8806 37.833 10.8806 37.863 10.8706C37.883 10.8606 37.913 10.8506 37.933 10.8406C38.233 10.6606 38.323 10.5206 38.373 10.4106C38.443 10.2606 38.323 10.1506 38.253 10.1006C38.233 10.0806 38.203 10.0606 38.193 10.0506C38.123 9.96063 38.053 9.88063 37.953 9.79063C37.923 9.76063 37.893 9.74063 37.863 9.71063C37.803 9.66063 37.743 9.60063 37.653 9.54063C37.613 9.52063 37.563 9.51063 37.523 9.52063C37.473 9.53063 37.443 9.56063 37.413 9.61063C37.373 9.69063 37.343 9.76063 37.313 9.84063C37.303 9.88063 37.283 9.91063 37.263 9.95063C37.223 10.0606 37.193 10.1706 37.173 10.2806C37.173 10.3006 37.153 10.3306 37.143 10.3606C37.103 10.4406 37.043 10.5906 37.173 10.6906C37.263 10.7706 37.413 10.8506 37.763 10.8806Z" fill="white"/>
<path d="M29.2436 14.5306C29.1236 14.6106 29.0336 14.7006 28.9436 14.8006L28.9136 14.8306C28.8136 14.9406 28.7336 15.0706 28.6736 15.2006C28.6636 15.2306 28.6436 15.2606 28.6236 15.2806C28.5536 15.3806 28.4536 15.5306 28.5436 15.6906C28.6536 15.8906 28.8236 16.0206 29.1136 16.0906C29.1536 16.1006 29.2036 16.1006 29.2436 16.0906C29.2636 16.0906 29.2736 16.0806 29.2936 16.0706C29.5436 15.9406 29.6936 15.8306 29.7836 15.7106C29.8936 15.5906 29.8036 15.4606 29.7636 15.4006C29.7436 15.3706 29.7236 15.3506 29.7236 15.3306L29.6236 15.0006C29.5936 14.9306 29.5836 14.8606 29.5636 14.7806C29.5536 14.7306 29.5436 14.6806 29.5236 14.6306L29.5036 14.5806C29.4236 14.5006 29.3236 14.4806 29.2436 14.5306Z" fill="white"/>
<path d="M27.3032 9.89064C27.3332 9.89064 27.3732 9.89064 27.4032 9.88064C27.4232 9.87064 27.4432 9.87063 27.4632 9.86063L27.4132 9.77063L27.4632 9.86063C27.7532 9.71063 27.8532 9.63064 27.9232 9.55064C27.9732 9.51064 27.9732 9.46063 27.9732 9.43063C27.9732 9.35063 27.9132 9.31063 27.8632 9.27063C27.8432 9.26063 27.8232 9.24064 27.8132 9.23064L27.6532 9.02063C27.6132 8.98063 27.5832 8.94064 27.5532 8.89064C27.5332 8.85064 27.5032 8.82064 27.4732 8.78064C27.4132 8.70064 27.3032 8.68064 27.2232 8.74064C27.1332 8.80064 27.0632 8.87063 26.9932 8.95063L26.9532 8.99064C26.8832 9.08064 26.8232 9.18064 26.7732 9.28064C26.7632 9.30064 26.7532 9.32064 26.7332 9.34064C26.6832 9.41064 26.5832 9.56064 26.7032 9.69064C26.8432 9.81064 27.0232 9.87064 27.3032 9.89064Z" fill="white"/>
<path d="M17.0837 11.3106C17.1337 11.3306 17.2037 11.3406 17.2537 11.3306C17.3337 11.3106 17.3938 11.3006 17.4538 11.2806C17.6338 11.2306 17.7238 11.1806 17.7938 11.1306C17.9338 11.0406 17.8537 10.8906 17.8237 10.8306C17.8137 10.8106 17.7938 10.7806 17.7938 10.7606L17.6538 10.1206V10.1106C17.6338 10.0706 17.6038 10.0306 17.5638 10.0106C17.5238 9.99064 17.4737 9.99064 17.4337 10.0106C17.3137 10.0506 17.2238 10.1206 17.1338 10.1806L17.0837 10.2106C16.9837 10.2906 16.8838 10.3806 16.8138 10.4806C16.7938 10.5006 16.7737 10.5206 16.7537 10.5406C16.6737 10.6106 16.5438 10.7306 16.6138 10.8906C16.6738 11.0606 16.8237 11.1906 17.0837 11.3106Z" fill="white"/>
<path d="M16.1829 16.3906C16.2229 16.3906 16.2529 16.3906 16.2929 16.3806C16.3129 16.3706 16.3329 16.3706 16.3529 16.3606C16.6129 16.2206 16.7429 16.1406 16.8229 16.0506C16.8629 16.0106 16.8729 15.9606 16.8829 15.9306C16.8829 15.8506 16.8329 15.8006 16.7929 15.7606C16.7729 15.7406 16.7529 15.7206 16.7529 15.7106L16.6329 15.4506C16.6029 15.3906 16.5829 15.3306 16.5529 15.2606C16.5429 15.2206 16.5229 15.1906 16.5129 15.1606L16.5029 15.1306C16.4829 15.0906 16.4429 15.0606 16.4029 15.0406C16.3529 15.0306 16.3129 15.0306 16.2729 15.0506C16.1529 15.1106 16.0629 15.1906 15.9729 15.2806L15.9529 15.3006C15.8629 15.4006 15.7829 15.5106 15.7329 15.6206C15.7229 15.6406 15.7029 15.6706 15.6929 15.6906C15.6329 15.7806 15.5229 15.9306 15.6329 16.0706C15.7229 16.2606 15.9029 16.3606 16.1829 16.3906Z" fill="white"/>
<path d="M18.5344 5.49064C18.5244 5.46064 18.5144 5.43064 18.5144 5.40064C18.5044 5.28064 18.4844 5.15064 18.4544 5.02064C18.4444 4.98064 18.4344 4.94064 18.4244 4.89064C18.4044 4.81064 18.3844 4.72064 18.3444 4.64064L18.3244 4.60064C18.2744 4.52064 18.1644 4.51064 18.0844 4.56064C18.0044 4.61064 17.9444 4.67064 17.8744 4.73064C17.8444 4.76064 17.8144 4.78064 17.7744 4.82064C17.6844 4.91064 17.5944 5.00064 17.5144 5.09064C17.4944 5.11064 17.4744 5.13064 17.4444 5.15064C17.3744 5.21064 17.2444 5.31064 17.2944 5.47064C17.3344 5.60064 17.4044 5.76064 17.6944 5.97064C17.7444 6.01064 17.8044 6.03064 17.8644 6.02064C18.0044 6.01064 18.1144 5.99064 18.1944 5.97064C18.3344 5.93064 18.4144 5.88064 18.4744 5.83064C18.6144 5.74064 18.5644 5.58064 18.5344 5.49064Z" fill="white"/>
<path d="M9.73336 13.7706C9.78336 13.7906 9.85336 13.8006 9.90336 13.7806H9.91336C10.2434 13.6706 10.3734 13.5606 10.4534 13.4806C10.5634 13.3706 10.5034 13.2306 10.4634 13.1506C10.4534 13.1206 10.4334 13.0906 10.4234 13.0706C10.4034 12.9606 10.3734 12.8506 10.3434 12.7206L10.2434 12.3406L10.2234 12.2906C10.1734 12.2106 10.0634 12.1906 9.98336 12.2406C9.88336 12.3106 9.79336 12.3906 9.71336 12.4606L9.65336 12.5206C9.55336 12.6206 9.47336 12.7406 9.40336 12.8606C9.38336 12.8906 9.36336 12.9106 9.34336 12.9406C9.27336 13.0306 9.16336 13.1606 9.23336 13.3206C9.28336 13.4406 9.39336 13.6206 9.73336 13.7706Z" fill="white"/>
<path d="M11.753 15.0606C11.713 14.9806 11.623 14.9406 11.533 14.9606H11.523C11.283 15.0406 11.093 15.2106 10.993 15.4206C10.983 15.4406 10.973 15.4506 10.953 15.4706C10.903 15.5506 10.783 15.7106 10.923 15.8506C11.063 15.9906 11.263 16.0406 11.543 16.0106C11.553 16.0106 11.573 16.0006 11.583 16.0006C11.613 15.9906 11.643 15.9806 11.683 15.9506L12.093 15.6906C12.163 15.6506 12.173 15.6006 12.163 15.5706C12.163 15.4906 12.083 15.4606 12.043 15.4406C12.033 15.4306 12.003 15.4206 12.003 15.4206C11.943 15.3306 11.833 15.2206 11.753 15.0606Z" fill="white"/>
<path d="M23.5641 16.6606C23.6141 16.6706 23.6641 16.6706 23.7141 16.6706C23.8241 16.6506 23.9241 16.6306 23.9941 16.6106C24.1041 16.5806 24.1741 16.5406 24.2441 16.5006C24.3041 16.4606 24.3141 16.4106 24.3141 16.3806C24.3241 16.3006 24.2641 16.2506 24.2141 16.2006C24.2041 16.1906 24.1841 16.1706 24.1741 16.1606C24.1341 16.1006 24.0741 16.0306 24.0041 15.9606C23.9841 15.9406 23.9641 15.9206 23.9441 15.9006C23.9041 15.8606 23.8541 15.8106 23.8041 15.7706C23.7341 15.7206 23.6541 15.7106 23.5741 15.7606C23.5141 15.8006 23.4641 15.8406 23.4141 15.8706C23.3941 15.8906 23.3641 15.9106 23.3341 15.9306C23.2641 15.9906 23.2041 16.0506 23.1541 16.1106C23.1441 16.1206 23.1241 16.1306 23.1141 16.1406C23.0641 16.1806 22.9941 16.2206 22.9941 16.3006C22.9941 16.3306 23.0041 16.3806 23.0541 16.4206C23.1241 16.5106 23.2441 16.5806 23.5641 16.6606Z" fill="white"/>
<path d="M19.9737 11.3206C19.9337 11.4206 19.8437 11.6006 20.0037 11.7206C20.1537 11.8406 20.3437 11.8606 20.5837 11.8006C20.6037 11.7906 20.6337 11.7906 20.6537 11.7806C20.6937 11.7606 20.7437 11.7406 20.7837 11.6906C20.9337 11.5406 21.0237 11.4606 21.0837 11.4106C21.1037 11.3906 21.1237 11.3806 21.1337 11.3706C21.2037 11.3206 21.2037 11.2706 21.1937 11.2406C21.1737 11.1606 21.1037 11.1406 21.0537 11.1406C21.0437 11.1406 21.0137 11.1306 21.0137 11.1306C20.9237 11.0706 20.8037 10.9706 20.7237 10.8206C20.6837 10.7406 20.5837 10.7006 20.4937 10.7406C20.2637 10.8306 20.0737 11.0406 20.0037 11.2706C19.9937 11.2806 19.9837 11.3006 19.9737 11.3206Z" fill="white"/>
<path d="M27.0144 6.44063L26.9844 6.42063C26.8844 6.35063 26.7644 6.27063 26.6544 6.14063L26.5744 6.21063L26.6544 6.14063C26.5944 6.07063 26.4944 6.05063 26.4044 6.11063C26.2044 6.25063 26.0544 6.47063 26.0144 6.69063C26.0144 6.71063 26.0044 6.73063 25.9944 6.75063C25.9644 6.84063 25.8944 7.02063 26.0544 7.12063C26.2044 7.22063 26.3844 7.23063 26.6044 7.17063C26.6344 7.16063 26.6544 7.15063 26.6844 7.14063C26.7344 7.12063 26.7744 7.10063 26.8144 7.06063C26.8944 6.98063 26.9544 6.92063 27.0044 6.87063C27.0844 6.79063 27.1344 6.74063 27.1644 6.70063C27.2144 6.65063 27.2144 6.59063 27.2044 6.57063C27.1844 6.49063 27.1044 6.48063 27.0544 6.47063C27.0444 6.44063 27.0144 6.44063 27.0144 6.44063Z" fill="white"/>
<path d="M29.1839 4.37064C29.2839 4.39064 29.4239 4.38064 29.7239 4.35064H29.7339C29.7539 4.35064 29.7739 4.35064 29.7839 4.34064C29.8139 4.33064 29.8439 4.32064 29.8739 4.30064C30.1039 4.14064 30.2239 3.99064 30.2539 3.80064C30.2839 3.62064 30.1039 3.55064 30.0239 3.52064C30.0039 3.51064 29.9739 3.50064 29.9639 3.50064C29.8639 3.44064 29.7539 3.40064 29.6339 3.38064L29.6039 3.37064C29.5039 3.36064 29.3939 3.34064 29.2739 3.36064C29.1839 3.38064 29.1139 3.46064 29.1239 3.55064L29.1339 3.65064C29.1339 3.71064 29.1439 3.77064 29.1339 3.84064L29.1239 4.08064C29.1239 4.09064 29.1139 4.12064 29.1039 4.13064C29.0839 4.18064 29.0539 4.25064 29.0939 4.32064C29.0939 4.33064 29.1239 4.37064 29.1839 4.37064Z" fill="white"/>
<path d="M16.9639 3.16064C17.0039 3.17064 17.0439 3.17064 17.0839 3.15064C17.1039 3.14064 17.1239 3.14064 17.1439 3.13064C17.3539 3.02064 17.4639 3.01064 17.5439 3.01064C17.5639 3.01064 17.5739 3.01064 17.5639 3.01064C17.6339 3.01064 17.6739 2.98064 17.6939 2.96064C17.7339 2.90064 17.6939 2.83064 17.6739 2.80064C17.6639 2.79064 17.6539 2.76064 17.6539 2.76064C17.6539 2.70064 17.6639 2.63064 17.6939 2.56064C17.7139 2.49064 17.7639 2.43064 17.8539 2.35064L17.8839 2.32064C17.9439 2.24064 17.9239 2.14064 17.8539 2.08064C17.7339 1.99064 17.5739 1.94064 17.3639 1.94064C17.1839 1.95064 17.0139 2.01064 16.8639 2.11064L16.8139 2.14064C16.6739 2.22064 16.4539 2.35064 16.4739 2.59064C16.4639 2.87064 16.6539 3.09064 16.9639 3.16064Z" fill="white"/>
<path d="M41.0238 37.8206H41.0138C41.4138 37.1106 41.8638 36.1106 41.9038 35.1306C41.9838 33.4406 41.6638 31.7506 41.3638 30.1106L41.3438 30.0206C41.2538 29.5306 41.1638 29.0306 41.0838 28.5406C41.0538 28.3406 41.0038 28.1306 40.9538 27.8806L41.9438 27.3806L41.9838 27.3606C42.8638 26.9606 43.6538 26.7206 44.4638 26.6106L46.2238 26.3606L44.7538 25.3906C42.8738 24.1506 41.5238 23.3206 40.7538 22.9306L40.7638 22.8906C40.8038 22.7706 40.8338 22.6406 40.8638 22.5106C40.9738 22.0106 41.0438 21.5506 41.0738 21.1006C42.2838 20.3706 42.8638 18.8006 42.4038 17.5106C42.0838 16.6006 41.3738 15.9106 40.4938 15.6306C40.6338 15.3806 40.7638 15.1306 40.8638 14.8806C41.6238 12.9906 41.3638 10.6506 40.1638 8.63063C39.2938 7.17063 38.0338 5.32063 35.9038 3.93063C33.0338 2.05063 29.4338 0.850634 24.9138 0.260634L24.9238 0.240634L23.9838 0.150634L23.8938 0.140635V0.120635L23.5638 0.100634C23.3738 0.0906343 23.1838 0.0806334 22.9638 0.0606334C21.5038 -0.0193666 19.4338 -0.0393653 18.0138 0.120635C14.9038 0.470635 10.5838 1.56063 7.64377 4.81063C6.55377 6.01063 5.76377 7.42063 5.19377 8.51063C4.56377 9.72063 3.96377 11.0406 3.89377 12.4806C3.84377 13.4706 4.05377 14.3606 4.52377 15.1106C3.70377 15.4706 2.94377 16.1806 2.53377 16.7006C2.11377 17.2306 1.93377 18.0106 2.05377 18.8306C2.18377 19.7506 2.63377 20.5606 3.25377 21.0106C3.58377 21.2506 3.95377 21.3906 4.37377 21.4406C4.47377 22.0106 4.73378 22.6906 5.15378 23.4606C4.48378 23.8006 3.65377 23.9606 2.75377 23.9106C1.59377 23.8606 0.843773 23.9906 0.413773 24.3306C0.123773 24.5606 -0.0262265 24.8806 0.00377348 25.2406C0.0937735 26.1606 1.15377 26.4606 1.85377 26.6606C1.95377 26.6906 2.06378 26.7206 2.15377 26.7506C2.72377 26.9306 3.18377 27.3006 3.71377 27.7806L3.76377 27.8306C3.76377 27.8306 3.96377 28.0106 4.18377 28.2106C3.93377 29.7006 3.70377 31.1506 3.71377 32.5506C3.71377 32.5506 1.12377 39.8006 17.6138 43.0606C34.1038 46.3206 40.9938 37.8306 40.9938 37.8306L41.0238 37.8206ZM2.69377 25.2706L2.80377 25.2806C4.00377 25.3306 5.08377 25.1106 6.02377 24.6206C6.38377 24.9606 6.80377 25.2706 7.28377 25.5206V25.5106C7.90377 25.8806 14.0038 28.3106 23.9638 28.4706C32.2738 28.6006 37.6038 27.6206 39.3838 25.6306C39.4138 25.6006 39.4438 25.5606 39.4538 25.5606L39.4738 25.5406C39.7538 25.2006 40.0138 24.8006 40.2238 24.3506C40.8938 24.7106 41.7838 25.2306 42.3838 25.5806L42.4438 25.6106C40.9238 26.1006 39.5838 26.9006 38.1538 27.7506C37.3138 28.2506 36.4338 28.7806 35.4738 29.2606C32.3138 30.8506 30.5038 31.9306 29.3138 32.6406C27.3338 33.8106 27.3338 33.8106 25.6638 33.4806C20.4138 32.4406 13.4538 30.6206 9.11377 29.1706C7.97377 28.7906 6.69377 28.3306 5.75377 27.6206C5.50377 27.4306 5.26378 27.2106 4.99378 26.9706C4.34378 26.3806 3.66377 25.7706 2.64377 25.4506C2.55377 25.4206 2.45377 25.3906 2.34377 25.3606L2.28377 25.3406C2.18377 25.3106 2.09377 25.2906 2.01377 25.2606C2.19377 25.2706 2.41377 25.2606 2.69377 25.2706ZM3.49378 18.6206C3.43378 18.1906 3.50377 17.8106 3.67377 17.5906C4.04377 17.1306 4.72377 16.5406 5.27377 16.3606C5.36377 16.3306 5.43377 16.3206 5.50377 16.3106C5.60377 16.3006 5.64377 16.3206 5.65378 16.3306C5.67378 16.3406 5.68377 16.3506 5.69377 16.3606L5.77377 16.4206C6.47377 17.0106 7.30377 17.2906 7.30377 17.2906C7.89377 17.6106 8.91377 17.9606 10.3438 18.3506C13.5238 19.2006 17.7738 19.9606 19.0238 20.1706C18.9038 20.1906 18.7838 20.2006 18.6638 20.2206C16.7138 20.5006 14.8738 20.7706 13.0738 20.5706C12.5738 20.5106 12.1138 20.4306 11.6838 20.3106C11.3538 20.2206 11.0138 20.1106 10.6638 19.9906C9.88377 19.7306 9.08377 19.4606 8.22377 19.4206C7.99377 19.4106 7.76377 19.4106 7.54377 19.4406C7.05377 19.4906 6.54377 19.6306 6.13377 19.7406C5.30377 19.9706 4.58377 20.1606 4.10377 19.8206C3.80377 19.6006 3.56378 19.1206 3.49378 18.6206ZM7.99378 15.2206C8.27378 15.2406 8.52377 15.0506 8.59377 14.7906C8.63377 14.6406 8.61377 14.4806 8.54377 14.3406C8.46377 14.2006 8.33377 14.1006 8.18377 14.0606C7.78377 13.9506 7.36378 13.7106 6.90378 13.3406C6.42378 12.9506 6.11377 12.6006 5.93377 12.2206C5.82377 11.9906 5.64377 11.6406 5.57377 11.3206C5.80377 10.5406 6.16378 9.80063 6.49378 9.17063C7.02378 8.16063 7.75377 6.86063 8.73377 5.77063C11.3738 2.86063 15.3238 1.87064 18.1838 1.55064C19.2538 1.43064 20.9438 1.41063 22.6938 1.49063L23.9338 1.59064C27.9138 2.07064 31.7338 3.44063 34.9638 5.56063C36.8438 6.79063 38.1038 8.00063 38.9038 9.35063C39.3038 10.0306 39.5838 10.7406 39.7238 11.4706C39.4938 11.9906 37.8538 15.3506 33.0938 15.3906C32.9338 15.3906 32.7838 15.4506 32.6738 15.5706C32.5638 15.6806 32.5038 15.8306 32.5038 15.9906C32.5038 16.3106 32.7638 16.5606 33.1038 16.5806C36.6438 16.5506 38.6938 14.9006 39.7038 13.7106C39.6538 13.9206 39.5838 14.1306 39.5038 14.3306C39.3138 14.8106 39.0138 15.2706 38.6438 15.7006L38.5538 15.7906C38.4138 15.9406 38.2638 16.0906 38.1238 16.2106C37.2938 16.8606 35.1838 18.0406 30.4438 18.6106C29.9338 18.6506 29.4338 18.6806 28.9338 18.7106L28.8138 18.7206C27.1238 18.8206 25.3738 18.9206 23.6338 18.9406C22.3738 18.9206 21.0438 18.8706 19.6738 18.7906L19.5138 18.7806C18.9738 18.6906 14.1838 17.8706 10.7938 16.9706L10.4138 16.8506C8.34377 16.2206 6.01377 15.5006 5.46377 13.6206C5.65377 13.8306 5.88378 14.0506 6.15378 14.2706C6.74378 14.7506 7.30377 15.0606 7.87377 15.2206C7.91377 15.2106 7.95378 15.2206 7.99378 15.2206ZM38.5238 24.9606C37.5938 25.9706 36.1338 26.1206 34.7138 26.2706C34.3638 26.3106 34.0038 26.3406 33.6638 26.3906C23.8138 27.8206 15.8538 27.4206 9.33377 25.1706C8.09377 24.7406 6.85377 24.2006 6.27377 23.1706C5.99377 22.6906 5.85377 22.0706 5.85377 21.3206C5.85377 21.3106 5.85377 21.3106 5.85377 21.3006C6.07377 21.2506 6.29377 21.1906 6.51377 21.1306L6.67377 21.0906C7.61377 22.0306 8.89377 22.4906 10.1238 22.8906C15.0338 24.4506 19.3738 25.2806 23.3938 25.4506C24.1638 25.4806 24.9238 25.4906 25.6638 25.4706C26.7638 25.4406 36.2938 25.1106 39.8838 21.7306C39.8538 21.9106 39.8238 22.0906 39.7838 22.2606C39.5138 23.4406 39.1038 24.3206 38.5238 24.9606ZM25.6338 24.3606C21.1238 24.4706 16.1638 23.6406 10.4538 21.8406C9.56377 21.5606 8.82377 21.2806 8.20377 20.8906C8.82377 20.9306 9.47377 21.1306 10.2238 21.3806C10.3638 21.4206 13.7338 22.3506 16.0538 22.0106C17.0438 21.9206 18.0638 21.7806 18.8738 21.6606L18.9538 21.6506C19.6038 21.5606 20.2738 21.4606 20.8938 21.3906C21.5338 21.4006 24.8038 21.4606 26.2638 21.7006C26.4338 21.7406 30.5238 22.7106 34.3438 21.4706C34.9838 21.3006 35.7438 21.1206 36.5338 21.1706C36.9038 21.1906 37.2938 21.2606 37.7038 21.3406C37.9538 21.3906 38.1838 21.4206 38.3938 21.4506C35.5138 23.4406 29.7638 24.2606 25.6338 24.3606ZM32.9138 20.3806L32.8438 20.4006C32.5138 20.5106 32.1538 20.6106 31.8038 20.7106C31.0338 20.9206 30.4438 21.0006 29.8938 20.9906C29.4438 20.9806 28.9738 20.9106 28.3538 20.7506C28.0038 20.6606 27.6438 20.5506 27.3238 20.4606L27.0938 20.3906C27.0438 20.3706 26.9938 20.3606 26.9338 20.3406C28.2838 20.2806 29.5438 20.1806 30.7038 20.0406C35.3438 19.4606 37.6938 18.3206 38.8538 17.4706C39.1438 17.2606 39.3338 17.0706 39.4538 16.9506C40.1138 16.8506 40.7638 17.2806 41.0138 17.9806C41.2738 18.7106 40.8538 19.6506 40.1338 19.9406C39.5138 20.1806 38.7638 20.0506 37.9638 19.9006C37.5338 19.8206 37.0838 19.7306 36.6138 19.7106C35.6438 19.6506 34.7238 19.8406 33.8338 20.0906C33.5338 20.1906 33.2238 20.2806 32.9138 20.3806ZM39.6438 28.9406C39.7338 29.5006 39.8238 30.1306 39.8538 30.5406C39.2438 31.5106 38.2738 32.3506 36.9838 33.0406C35.9238 33.6006 31.5738 35.1306 29.9338 35.1706L29.8838 35.1806L29.8638 35.1906C29.6838 35.2906 29.5038 35.3806 29.3338 35.4806L29.2238 35.5406V35.6606C29.2338 35.9306 29.4438 36.1606 29.7138 36.1806H29.7438C31.4438 36.2906 36.2138 35.2006 37.4938 34.5206C38.4738 34.0006 39.2738 33.0106 39.9238 32.1906C39.9438 33.1606 39.9338 34.1306 39.8838 35.0806C39.8338 36.1906 39.7238 37.4506 39.0338 38.3106C38.6138 38.8406 37.9638 39.2206 37.3938 39.5306C28.9338 44.1406 17.5938 43.5606 9.19377 38.0906C8.09377 37.3706 6.73377 36.3806 5.98377 35.0406C5.42377 34.0306 5.17377 32.8506 5.21377 31.3306C5.57377 31.6306 5.97377 31.8606 6.39377 32.1106L6.48377 32.1606C6.62377 32.2406 6.76377 32.3306 6.91377 32.4106L6.98377 32.4506C7.74377 32.9006 8.45377 33.3306 9.29377 33.6406L11.9838 34.4106C12.0338 34.4306 12.0838 34.4406 12.1438 34.4406C12.3738 34.4606 12.5738 34.3206 12.6538 34.1106C12.6938 33.9806 12.6938 33.8406 12.6238 33.7206C12.5638 33.6006 12.4538 33.5006 12.3238 33.4506L8.92377 32.1806C8.22377 31.9206 7.55378 31.6006 6.90378 31.2306C6.19378 30.8106 5.72377 30.5406 5.32377 29.9606C5.35377 29.7106 5.39377 29.4306 5.43377 29.1106C6.44377 29.7106 7.60377 30.1406 8.60377 30.4706C13.0138 31.9406 20.0738 33.7806 25.3938 34.8406C26.0238 34.9706 26.5338 35.0506 26.9738 35.0706C27.2838 35.0806 27.5538 35.0606 27.8238 35.0106C28.5038 34.8706 29.1738 34.4806 30.3038 33.8106C31.4938 33.1106 33.2838 32.0406 36.3738 30.4806C37.3938 29.9706 38.2938 29.4206 39.1838 28.9006C39.2838 28.8406 39.3838 28.7806 39.4838 28.7306C39.5238 28.7106 39.5638 28.6806 39.6138 28.6606L39.6438 28.9406Z" fill="white"/>
</svg>
